<svg width="143" height="20" viewBox="0 0 143 20" fill="none" xmlns="http://www.w3.org/2000/svg">
<path d="M15.7857 1.25H1.21049C0.542634 1.25 0 1.81641 0 2.51172V17.4883C0 18.1836 0.542634 18.75 1.21049 18.75H15.7857C16.4536 18.75 17 18.1836 17 17.4883V2.51172C17 1.81641 16.4536 1.25 15.7857 1.25ZM5.13795 16.25H2.6183V7.89844H5.14174V16.25H5.13795ZM3.87812 6.75781C3.06987 6.75781 2.41719 6.08203 2.41719 5.25391C2.41719 4.42578 3.06987 3.75 3.87812 3.75C4.68259 3.75 5.33906 4.42578 5.33906 5.25391C5.33906 6.08594 4.68638 6.75781 3.87812 6.75781ZM14.5828 16.25H12.0632V12.1875C12.0632 11.2188 12.0442 9.97266 10.754 9.97266C9.44107 9.97266 9.23996 11.0273 9.23996 12.1172V16.25H6.72031V7.89844H9.1375V9.03906H9.17165C9.50937 8.38281 10.3328 7.69141 11.5585 7.69141C14.1085 7.69141 14.5828 9.42188 14.5828 11.6719V16.25Z" fill="black"/>
<path d="M57.8493 3.45397C57.8431 3.44261 57.8329 3.43385 57.8206 3.42936C56.4515 2.81476 55.0068 2.37634 53.5225 2.12506C53.5091 2.12267 53.4954 2.12444 53.4831 2.13012C53.4709 2.13579 53.4607 2.14509 53.4542 2.1567C53.2573 2.50626 53.0786 2.86531 52.9187 3.23248C51.3179 2.99478 49.6895 2.99478 48.0887 3.23248C47.9282 2.8644 47.747 2.50526 47.5461 2.1567C47.5391 2.14544 47.5289 2.13643 47.5168 2.1308C47.5046 2.12517 47.4911 2.12317 47.4778 2.12506C45.9909 2.37521 44.5436 2.81366 43.1725 3.42936C43.1604 3.43434 43.1504 3.44297 43.1437 3.45397C40.4053 7.45826 39.6542 11.3606 40.0207 15.2172C40.0218 15.227 40.0249 15.2363 40.0298 15.2448C40.0348 15.2533 40.0415 15.2607 40.0495 15.2665C41.6446 16.4207 43.4285 17.3016 45.3251 17.8715C45.3387 17.8757 45.3534 17.8755 45.3669 17.8711C45.3804 17.8667 45.3922 17.8582 45.4006 17.8469C45.8075 17.305 46.1681 16.7312 46.4787 16.1313C46.4828 16.1231 46.4852 16.1141 46.4856 16.1049C46.486 16.0957 46.4845 16.0865 46.4811 16.0779C46.4778 16.0694 46.4726 16.0616 46.466 16.055C46.4594 16.0485 46.4515 16.0433 46.4428 16.0399C45.873 15.8263 45.3214 15.5689 44.7932 15.27C44.7839 15.2644 44.7761 15.2567 44.7704 15.2475C44.7648 15.2384 44.7615 15.228 44.7608 15.2173C44.76 15.2066 44.762 15.1959 44.7664 15.1861C44.7708 15.1763 44.7775 15.1677 44.7861 15.161C44.8975 15.0801 45.0089 14.9958 45.1131 14.9114C45.1223 14.9035 45.1336 14.8983 45.1457 14.8964C45.1577 14.8946 45.1701 14.8961 45.1814 14.9008C48.6386 16.4442 52.3832 16.4442 55.8009 14.9008C55.8118 14.8956 55.824 14.8935 55.8361 14.8948C55.8481 14.896 55.8596 14.9006 55.8692 14.9079C55.9734 14.9922 56.0848 15.0801 56.1962 15.161C56.2047 15.1677 56.2115 15.1763 56.2159 15.1861C56.2203 15.1959 56.2222 15.2066 56.2215 15.2173C56.2208 15.228 56.2175 15.2384 56.2118 15.2475C56.2062 15.2567 56.1984 15.2644 56.189 15.27C55.6622 15.5704 55.1104 15.8268 54.5395 16.0364C54.5308 16.0398 54.5229 16.0449 54.5163 16.0515C54.5097 16.058 54.5045 16.0658 54.5011 16.0744C54.4978 16.083 54.4962 16.0922 54.4967 16.1014C54.4971 16.1105 54.4994 16.1195 54.5036 16.1278C54.8196 16.7247 55.1799 17.2981 55.5817 17.8434C55.5901 17.8547 55.6018 17.8632 55.6154 17.8676C55.6289 17.872 55.6435 17.8722 55.6571 17.868C57.5592 17.3006 59.3483 16.4196 60.9471 15.263C60.9553 15.2573 60.9622 15.25 60.9671 15.2415C60.9721 15.233 60.9751 15.2235 60.9759 15.2137C61.4143 10.7594 60.2356 6.88873 57.8493 3.45397ZM46.9962 12.8688C45.954 12.8688 45.0987 11.9337 45.0987 10.7876C45.0987 9.64147 45.9396 8.7028 46.9962 8.7028C48.0636 8.7028 48.9117 9.64498 48.8937 10.784C48.8937 11.9337 48.0528 12.8688 46.9962 12.8688ZM54.0184 12.8688C52.9762 12.8688 52.1209 11.9337 52.1209 10.7876C52.1209 9.64147 52.9582 8.7028 54.0184 8.7028C55.0857 8.7028 55.9339 9.64498 55.9159 10.784C55.9159 11.9337 55.0821 12.8688 54.0184 12.8688Z" fill="black"/>
<path d="M142.041 5.60527C141.812 4.72578 141.137 4.03555 140.28 3.80176C138.727 3.375 132.5 3.375 132.5 3.375C132.5 3.375 126.273 3.375 124.72 3.80176C123.863 4.03555 123.189 4.72578 122.959 5.60527C122.543 7.19727 122.543 10.5148 122.543 10.5148C122.543 10.5148 122.543 13.8324 122.959 15.4244C123.189 16.3039 123.863 16.9645 124.72 17.1982C126.273 17.625 132.5 17.625 132.5 17.625C132.5 17.625 138.727 17.625 140.28 17.1982C141.137 16.9645 141.812 16.3002 142.041 15.4244C142.457 13.8324 142.457 10.5148 142.457 10.5148C142.457 10.5148 142.457 7.19727 142.041 5.60527ZM130.466 13.5281V7.50156L135.668 10.5148L130.466 13.5281Z" fill="black"/>
<g clip-path="url(#clip0_417_566)">
<path d="M92.0038 6.95708C89.7324 6.95708 87.9002 8.76059 87.9002 10.9965C87.9002 13.2325 89.7324 15.036 92.0038 15.036C94.2752 15.036 96.1074 13.2325 96.1074 10.9965C96.1074 8.76059 94.2752 6.95708 92.0038 6.95708ZM92.0038 13.6227C90.536 13.6227 89.336 12.445 89.336 10.9965C89.336 9.54809 90.5324 8.37036 92.0038 8.37036C93.4752 8.37036 94.6717 9.54809 94.6717 10.9965C94.6717 12.445 93.4717 13.6227 92.0038 13.6227ZM97.2324 6.79185C97.2324 7.31567 96.8038 7.73403 96.2752 7.73403C95.7431 7.73403 95.3181 7.31216 95.3181 6.79185C95.3181 6.27153 95.7467 5.84966 96.2752 5.84966C96.8038 5.84966 97.2324 6.27153 97.2324 6.79185ZM99.9502 7.7481C99.8895 6.48599 99.5967 5.36802 98.6574 4.44692C97.7217 3.52583 96.586 3.23755 95.3038 3.17427C93.9824 3.10044 90.0217 3.10044 88.7002 3.17427C87.4217 3.23403 86.286 3.52231 85.3467 4.44341C84.4074 5.3645 84.1181 6.48247 84.0538 7.74458C83.9788 9.04536 83.9788 12.9442 84.0538 14.245C84.1145 15.5071 84.4074 16.625 85.3467 17.5461C86.286 18.4672 87.4181 18.7555 88.7002 18.8188C90.0217 18.8926 93.9824 18.8926 95.3038 18.8188C96.586 18.759 97.7217 18.4707 98.6574 17.5461C99.5931 16.625 99.886 15.5071 99.9502 14.245C100.025 12.9442 100.025 9.04888 99.9502 7.7481ZM98.2431 15.6407C97.9645 16.3297 97.4252 16.8606 96.7217 17.1383C95.6681 17.5497 93.1681 17.4547 92.0038 17.4547C90.8395 17.4547 88.336 17.5461 87.286 17.1383C86.586 16.8641 86.0467 16.3333 85.7645 15.6407C85.3467 14.6036 85.4431 12.1426 85.4431 10.9965C85.4431 9.85044 85.3502 7.38599 85.7645 6.35239C86.0431 5.66333 86.5824 5.13247 87.286 4.85474C88.3395 4.44341 90.8395 4.53833 92.0038 4.53833C93.1681 4.53833 95.6717 4.44692 96.7217 4.85474C97.4217 5.12895 97.961 5.65981 98.2431 6.35239C98.661 7.3895 98.5645 9.85044 98.5645 10.9965C98.5645 12.1426 98.661 14.6071 98.2431 15.6407Z" fill="black"/>
</g>
<defs>
<clipPath id="clip0_417_566">
<rect width="16" height="18" fill="white" transform="translate(84 2)"/>
</clipPath>
</defs>
</svg>
