<svg width="657" height="476" viewBox="0 0 657 476" fill="none" xmlns="http://www.w3.org/2000/svg">
<path d="M634.149 237.446C628.406 191.708 614.041 147.545 596.881 115.884C555.429 39.807 439.949 -11.0808 352.945 2.08157C278.731 13.2959 243.072 81.005 176.159 104.501C114.599 126.116 59.1713 142.802 30.1531 199.839C-31.3221 320.316 118.953 452.025 247.747 441.759C288.403 438.507 324.723 422.871 366.446 430.206C451.146 445.096 479.266 461.105 554.073 431.324C627.779 401.967 644.194 317.454 634.149 237.446Z" fill="#6266F7"/>
<path opacity="0.8" d="M634.149 237.446C628.406 191.708 614.041 147.545 596.881 115.884C555.429 39.807 439.949 -11.0808 352.945 2.08157C278.731 13.2959 243.072 81.005 176.159 104.501C114.599 126.116 59.1713 142.802 30.1531 199.839C-31.3221 320.316 118.953 452.025 247.747 441.759C288.403 438.507 324.723 422.871 366.446 430.206C451.146 445.096 479.266 461.105 554.073 431.324C627.779 401.967 644.194 317.454 634.149 237.446Z" fill="white"/>
<path d="M337.817 467.694L265.568 305.917H440.643L656.544 448.332" fill="white"/>
<path d="M337.817 467.694L265.568 305.917H440.643L656.544 448.332" stroke="#263238" stroke-width="0.75" stroke-linecap="round" stroke-linejoin="round"/>
<path d="M319.895 461.325L265.568 316.708V305.917L342.425 475.233L319.895 461.325Z" fill="#263238" stroke="#263238" stroke-width="0.75" stroke-linecap="round" stroke-linejoin="round"/>
<path d="M365.667 312.609L440.135 399.901L349.743 420.957L298.381 323.383L365.667 312.609Z" fill="white" stroke="#263238" stroke-width="0.75" stroke-linecap="round" stroke-linejoin="round"/>
<path d="M349.743 420.957V423.532L438.593 405.558L440.135 399.901L349.743 420.957Z" fill="#263238" stroke="#263238" stroke-width="0.75" stroke-linecap="round" stroke-linejoin="round"/>
<path d="M362.855 344.016L366.666 349.64L376.356 347.014L372.324 341.525L362.855 344.016Z" fill="#263238"/>
<path d="M399.53 378.421L394.922 372.187L383.911 375.151L388.214 381.521L399.53 378.421Z" fill="#263238"/>
<path d="M354.944 332.293L357.773 336.494L366.887 334.173L364.024 330.277L354.944 332.293Z" fill="#263238"/>
<path d="M372.494 358.262L377.711 365.987L388.366 363.293L382.607 355.484L372.494 358.262Z" fill="#263238"/>
<path d="M400.089 361.887L390.958 364.208L395.532 370.408L404.832 367.901L400.089 361.887Z" fill="#263238"/>
<path d="M378.643 367.342L382.997 373.813L393.94 370.848L389.349 364.615L378.643 367.342Z" fill="#263238"/>
<path d="M344.627 334.58L347.439 339.12L356.181 336.884L353.318 332.649L344.627 334.58Z" fill="#263238"/>
<path d="M367.564 350.978L371.596 356.924L381.624 354.146L377.338 348.335L367.564 350.978Z" fill="#263238"/>
<path d="M358.688 337.832L361.94 342.66L371.325 340.187L367.869 335.495L358.688 337.832Z" fill="#263238"/>
<path d="M338.969 348.725L336.123 343.592L325.739 346.235L328.636 351.452L338.969 348.725Z" fill="#263238"/>
<path d="M324.045 361.142L331.177 359.228L327.874 353.265L320.86 355.111L324.045 361.142Z" fill="#263238"/>
<path d="M341.544 329.6L343.764 333.191L352.386 331.277L350.065 327.855L341.544 329.6Z" fill="#263238"/>
<path d="M335.344 342.186L332.6 337.24L322.046 339.56L324.96 344.829L335.344 342.186Z" fill="#263238"/>
<path d="M331.295 331.683L333.396 335.478L342.171 333.547L339.918 329.921L331.295 331.683Z" fill="#263238"/>
<path d="M316.541 346.98L323.419 345.218L320.471 339.916L313.61 341.424L316.541 346.98Z" fill="#263238"/>
<path d="M319.065 334.19L321.267 338.154L331.821 335.833L329.703 332.005L319.065 334.19Z" fill="#263238"/>
<path d="M352.216 346.827L355.774 352.57L365.091 350.063L361.279 344.439L352.216 346.827Z" fill="#263238"/>
<path d="M376.136 366.393L370.935 358.702L361.229 361.379L365.938 368.985L376.136 366.393Z" fill="#263238"/>
<path d="M334.175 336.884L336.886 341.796L345.864 339.509L343.035 334.936L334.175 336.884Z" fill="#263238"/>
<path d="M336.208 368.274L328.89 370.289L332.685 377.455L340.223 375.541L336.208 368.274Z" fill="#263238"/>
<path d="M356.621 353.942L360.382 360.007L370.021 357.364L366.006 351.401L356.621 353.942Z" fill="#263238"/>
<path d="M349.811 345.879L346.711 340.882L337.665 343.185L340.511 348.335L349.811 345.879Z" fill="#263238"/>
<path d="M366.802 398.986L356.452 401.628L360.145 408.286L370.529 405.728L366.802 398.986Z" fill="#263238"/>
<path d="M350.776 326.144L359.636 324.331L354.876 317.86L346.152 319.3L350.776 326.144Z" fill="#263238"/>
<path d="M328.924 330.599L324.638 322.857L313.78 324.653L318.286 332.784L328.924 330.599Z" fill="#263238"/>
<path d="M343.018 356.026L339.748 350.114L329.415 352.841L332.718 358.804L343.018 356.026Z" fill="#263238"/>
<path d="M369.394 377.489L365.226 370.764L354.453 373.508L358.315 380.487L369.394 377.489Z" fill="#263238"/>
<path d="M364.379 369.392L359.67 361.802L349.523 364.598L353.673 372.102L364.379 369.392Z" fill="#263238"/>
<path d="M381.421 374.236L377.05 367.748L366.785 370.357L370.952 377.065L381.421 374.236Z" fill="#263238"/>
<path d="M354.216 352.994L350.658 347.234L341.273 349.724L344.543 355.602L354.216 352.994Z" fill="#263238"/>
<path d="M348.287 340.492L351.37 345.455L360.365 343.084L357.095 338.239L348.287 340.492Z" fill="#263238"/>
<path d="M358.823 360.447L355.063 354.366L345.305 356.991L348.761 363.225L358.823 360.447Z" fill="#263238"/>
<path d="M386.656 381.961L382.336 375.592L371.799 378.438L375.814 384.926L386.656 381.961Z" fill="#263238"/>
<path d="M379.693 394.107L375.103 386.704L363.516 389.889L367.581 397.19L379.693 394.107Z" fill="#263238"/>
<path d="M344.966 384.096L341.002 376.93L333.43 378.861L337.292 386.179L344.966 384.096Z" fill="#263238"/>
<path d="M331.956 360.617L324.791 362.548L328.162 368.9L335.429 366.901L331.956 360.617Z" fill="#263238"/>
<path d="M366.022 397.597L361.991 390.296L351.725 393.108L355.672 400.222L366.022 397.597Z" fill="#263238"/>
<path d="M347.219 363.632L343.78 357.415L333.481 360.193L336.971 366.478L347.219 363.632Z" fill="#263238"/>
<path d="M351.708 327.516L354.012 330.921L363.024 328.922L360.635 325.686L351.708 327.516Z" fill="#263238"/>
<path d="M312.865 340.018L319.692 338.51L317.49 334.512L310.68 335.901L312.865 340.018Z" fill="#263238"/>
<path d="M340.663 328.193L349.133 326.466L344.475 319.571L336.174 320.943L340.663 328.193Z" fill="#263238"/>
<path d="M330.516 330.277L339.071 328.532L334.531 321.214L326.248 322.586L330.516 330.277Z" fill="#263238"/>
<path d="M327.111 351.876L324.198 346.624L317.286 348.386L320.115 353.705L327.111 351.876Z" fill="#263238"/>
<path d="M361.297 323.992L368.953 322.417L364.142 316.336L356.57 317.572L361.297 323.992Z" fill="#263238"/>
<path d="M316.693 333.106L312.154 324.907L305.445 326.025L309.934 334.478L316.693 333.106Z" fill="#263238"/>
<path d="M354.91 402.018L346.779 404.085L350.302 410.725L358.603 408.675L354.91 402.018Z" fill="#263238"/>
<path d="M393.55 392.159L382.099 395.073L386.283 401.832L398.107 398.901L393.55 392.159Z" fill="#263238"/>
<path d="M380.54 395.479L368.343 398.579L372.087 405.338L384.707 402.221L380.54 395.479Z" fill="#263238"/>
<path d="M407.102 388.703L395.143 391.752L399.699 398.511L412.083 395.445L407.102 388.703Z" fill="#263238"/>
<path d="M418.875 385.705L408.711 388.297L413.709 395.056L424.212 392.447L418.875 385.705Z" fill="#263238"/>
<path d="M350.201 393.531L342.324 395.682L346.034 402.696L354.131 400.629L350.201 393.531Z" fill="#263238"/>
<path d="M374.256 385.349L370.241 378.861L359.094 381.876L362.753 388.5L374.256 385.349Z" fill="#263238"/>
<path d="M392.636 390.804L387.554 383.299L376.661 386.281L381.252 393.701L392.636 390.804Z" fill="#263238"/>
<path d="M361.229 388.907L357.553 382.283L347.27 385.078L350.963 391.719L361.229 388.907Z" fill="#263238"/>
<path d="M341.595 394.293L349.438 392.142L345.745 385.485L338.038 387.568L341.595 394.293Z" fill="#263238"/>
<path d="M352.132 372.509L347.999 365.021L337.733 367.85L341.765 375.134L352.132 372.509Z" fill="#263238"/>
<path d="M406.12 387.365L400.513 379.759L389.129 382.876L394.228 390.397L406.12 387.365Z" fill="#263238"/>
<path d="M356.79 380.894L352.911 373.898L342.544 376.54L346.508 383.689L356.79 380.894Z" fill="#263238"/>
<path d="M384.199 355.043L389.976 362.87L399.039 360.566L392.805 352.672L384.199 355.043Z" fill="#263238"/>
<path d="M372.934 339.764L380.964 337.646L377.355 333.089L369.495 335.088L372.934 339.764Z" fill="#263238"/>
<path d="M365.684 329.921L368.496 333.75L376.322 331.768L373.493 328.193L365.684 329.921Z" fill="#263238"/>
<path d="M417.825 384.384L411.761 376.676L402.105 379.318L407.729 386.958L417.825 384.384Z" fill="#263238"/>
<path d="M373.917 341.102L377.965 346.573L386.232 344.337L381.997 338.967L373.917 341.102Z" fill="#263238"/>
<path d="M396.515 371.746L401.122 377.997L410.727 375.371L405.866 369.222L396.515 371.746Z" fill="#263238"/>
<path d="M364.667 328.566L372.443 326.855L370.02 323.772L362.312 325.348L364.667 328.566Z" fill="#263238"/>
<path d="M383.217 353.722L391.771 351.351L387.282 345.659L378.948 347.912L383.217 353.722Z" fill="#263238"/>
<path d="M451.942 322.366V336.223C450.535 337.584 448.984 338.788 447.317 339.814C444.76 341.356 423.703 344.896 423.703 344.896L450.401 374.186C450.401 374.186 474.879 371.509 481.74 369.561C488.922 367.494 487.381 341.305 487.381 341.305L451.942 322.366Z" fill="white" stroke="#263238" stroke-width="0.75" stroke-linecap="round" stroke-linejoin="round"/>
<path d="M451.942 322.366V336.223C451.942 336.223 451.57 336.596 450.96 337.138L482.18 369.425C488.855 366.427 487.381 341.356 487.381 341.356L451.942 322.366Z" fill="#263238" stroke="#263238" stroke-width="0.75" stroke-linecap="round" stroke-linejoin="round"/>
<path d="M404.697 145.174V292.061L516.653 380.386V153.39L404.697 145.174Z" fill="white" stroke="#263238" stroke-width="0.75" stroke-linecap="round" stroke-linejoin="round"/>
<path d="M412.404 152.881V276.645L506.387 334.682V161.097L412.404 152.881Z" fill="#6266F7" stroke="#263238" stroke-width="0.75" stroke-linecap="round" stroke-linejoin="round"/>
<path d="M527.952 153.39H516.653V380.437H527.952V153.39Z" fill="#263238" stroke="#263238" stroke-width="0.75" stroke-linecap="round" stroke-linejoin="round"/>
<path d="M418.57 160.589L419.079 271.004L497.646 315.675V178.952L443.726 170.787L440.135 163.147L418.57 160.589Z" fill="white" stroke="#263238" stroke-width="0.75" stroke-linecap="round" stroke-linejoin="round"/>
<path d="M423.703 173.938V267.921L493.039 304.901V186.27L423.703 173.938Z" fill="#6266F7" stroke="#263238" stroke-width="0.75" stroke-linecap="round" stroke-linejoin="round"/>
<path d="M464.254 265.671C474.037 262.386 478.298 248.795 473.771 235.314C469.245 221.833 457.645 213.567 447.862 216.851C438.08 220.136 433.819 233.727 438.345 247.208C442.872 260.689 454.471 268.955 464.254 265.671Z" fill="#263238"/>
<path d="M458.108 242.799L464.698 235.498C465.143 234.847 465.371 234.073 465.349 233.285C465.328 232.497 465.059 231.736 464.58 231.11C463.597 229.704 462.055 229.416 461.192 230.416L454.856 237.446L448.503 227.282C447.589 225.808 446.047 225.351 445.115 226.266C444.624 226.872 444.345 227.623 444.321 228.403C444.296 229.183 444.528 229.949 444.98 230.585L451.57 241.173L444.861 248.44C444.417 249.092 444.19 249.867 444.215 250.656C444.239 251.444 444.513 252.205 444.997 252.827C445.384 253.44 445.989 253.883 446.691 254.064C446.996 254.14 447.316 254.129 447.615 254.033C447.914 253.937 448.181 253.761 448.385 253.522L454.737 246.492L461.073 256.656C461.462 257.347 462.107 257.858 462.869 258.079C463.161 258.171 463.474 258.182 463.772 258.11C464.07 258.038 464.344 257.887 464.563 257.672C465.049 257.063 465.323 256.312 465.344 255.532C465.366 254.753 465.133 253.988 464.681 253.353L458.108 242.799Z" fill="white"/>
<path d="M436.019 205.785L474.845 217.186" stroke="#263238" stroke-width="0.75" stroke-linecap="round" stroke-linejoin="round"/>
<path d="M434.477 194.994L484.806 209.038" stroke="#263238" stroke-width="0.75" stroke-linecap="round" stroke-linejoin="round"/>
<path d="M469.17 436.999C469.17 436.999 444.624 439.269 435.545 446.536C426.465 453.804 433.275 457.446 441.897 459.716C450.52 461.986 489.16 458.344 494.157 453.346C499.154 448.349 494.157 436.084 469.17 436.999Z" fill="white" stroke="#263238" stroke-width="0.75" stroke-linecap="round" stroke-linejoin="round"/>
<path d="M494.157 453.414C495.122 452.45 495.721 451.18 495.851 449.823C484.856 449.281 470.44 452.465 457.346 456.599C452.925 458.005 448.436 459.187 443.896 460.139C455.313 461.511 489.481 458.022 494.157 453.414Z" fill="#263238" stroke="#263238" stroke-width="0.75" stroke-linecap="round" stroke-linejoin="round"/>
<path d="M382.149 167.399L400.089 176.733" stroke="#263238" stroke-linecap="round" stroke-linejoin="round"/>
<path d="M371.85 162.046L377.186 164.824" stroke="#263238" stroke-linecap="round" stroke-linejoin="round"/>
<path d="M386.097 214.424L392.178 215.119" stroke="#263238" stroke-linecap="round" stroke-linejoin="round"/>
<path d="M362.821 211.731L379.219 213.628" stroke="#263238" stroke-linecap="round" stroke-linejoin="round"/>
<path d="M389.925 258.045L369.597 263.686" stroke="#263238" stroke-linecap="round" stroke-linejoin="round"/>
<path d="M363.685 9.586C354.069 9.586 344.669 12.4374 336.674 17.7796C328.679 23.1218 322.447 30.7148 318.768 39.5986C315.088 48.4823 314.125 58.2577 316.001 67.6887C317.877 77.1196 322.507 85.7824 329.307 92.5818C336.106 99.3811 344.769 104.011 354.2 105.887C363.631 107.763 373.406 106.801 382.29 103.121C391.174 99.441 398.767 93.2096 404.109 85.2144C409.451 77.2192 412.303 67.8195 412.303 58.2038C412.303 45.3096 407.18 32.9434 398.063 23.8258C388.945 14.7082 376.579 9.586 363.685 9.586ZM363.685 97.2674C355.959 97.2641 348.408 94.9702 341.987 90.6758C335.565 86.3814 330.561 80.2793 327.607 73.1411C324.653 66.0028 323.881 58.149 325.391 50.5725C326.9 42.996 330.622 36.0371 336.085 30.5756C341.549 25.1142 348.51 21.3954 356.087 19.8895C363.664 18.3836 371.518 19.1582 378.655 22.1153C385.792 25.0725 391.891 30.0793 396.183 36.503C400.475 42.9266 402.765 50.4785 402.765 58.2038C402.774 63.34 401.77 68.4276 399.809 73.175C397.849 77.9224 394.971 82.2363 391.341 85.8698C387.711 89.5032 383.399 92.3848 378.653 94.3493C373.908 96.3138 368.821 97.3227 363.685 97.3182V97.2674Z" fill="#263238"/>
<path d="M367.157 58.2546C367.174 58.9448 366.985 59.6244 366.614 60.2065C366.242 60.7886 365.706 61.2468 365.073 61.5227C364.44 61.7986 363.74 61.8796 363.06 61.7553C362.381 61.631 361.755 61.3071 361.261 60.825C360.766 60.3429 360.427 59.7244 360.286 59.0486C360.145 58.3727 360.209 57.6702 360.469 57.0307C360.729 56.3912 361.174 55.8437 361.747 55.4583C362.319 55.0728 362.994 54.8668 363.685 54.8666C364.591 54.8663 365.462 55.2206 366.111 55.8536C366.76 56.4867 367.135 57.3483 367.157 58.2546Z" fill="#263238"/>
<path d="M352.047 75.8892L363.685 58.2546L383.352 74.5339" stroke="#263238" stroke-linecap="round" stroke-linejoin="round"/>
<path d="M105.689 95.5226L99.8442 79.5482L102.961 83.0548V77.6001L109.585 87.7302L103.74 51.4956L111.533 71.3662L112.312 53.8333L113.481 59.6776L115.039 39.807L117.767 70.1973L121.663 59.6776L120.884 73.3143L131.403 42.1447L126.338 81.1067L133.741 75.652L129.455 82.6652L134.91 78.769L128.693 96.6915L106.078 97.0811" fill="#6266F7"/>
<path d="M130.692 134.874H106.332L99.7598 92.6597H137.248L130.692 134.874Z" fill="#263238" stroke="#263238" stroke-linecap="round" stroke-linejoin="round"/>
<path d="M197.385 134.586H74.4175V461.715H197.385V134.586Z" fill="white" stroke="#263238" stroke-linecap="round" stroke-linejoin="round"/>
<path d="M189.016 145.326H81.5659V224.114H189.016V145.326Z" stroke="#263238" stroke-linecap="round" stroke-linejoin="round"/>
<path d="M156.78 177.563H113.803V191.894H156.78V177.563Z" fill="#263238"/>
<path d="M189.016 237.26H81.5659V316.048H189.016V237.26Z" stroke="#263238" stroke-linecap="round" stroke-linejoin="round"/>
<path d="M156.78 269.496H113.803V283.828H156.78V269.496Z" fill="#263238"/>
<path d="M189.016 329.176H81.5659V407.964H189.016V329.176Z" stroke="#263238" stroke-linecap="round" stroke-linejoin="round"/>
<path d="M156.78 361.413H113.803V375.744H156.78V361.413Z" fill="#263238"/>
<mask id="mask0_313_753" style="mask-type:luminance" maskUnits="userSpaceOnUse" x="0" y="77" width="390" height="387">
<path d="M389.925 77.346H0.305176V463.578H389.925V77.346Z" fill="white"/>
</mask>
<g mask="url(#mask0_313_753)">
<path d="M210.564 443.047C210.564 443.047 272.192 415.824 305.327 413.774L329.5 467.186H146.921L210.564 443.047Z" fill="#263238" stroke="#263238" stroke-width="0.75" stroke-linecap="round" stroke-linejoin="round"/>
<path d="M285.574 121.221C285.574 121.221 328.958 172.752 338.088 182.205C347.219 191.657 347.558 198.518 344.61 202.753C341.663 206.988 319.505 214.831 296.67 229.501C273.835 244.171 208.921 282.015 208.277 283.336C207.633 284.658 201.417 237.598 201.417 237.598L310.036 192.911L309.714 189.641L274.479 124.405L285.574 121.221Z" fill="white"/>
<mask id="mask1_313_753" style="mask-type:luminance" maskUnits="userSpaceOnUse" x="201" y="121" width="146" height="163">
<path d="M285.574 121.221C285.574 121.221 328.958 172.752 338.088 182.205C347.219 191.657 347.558 198.518 344.61 202.753C341.663 206.988 319.505 214.831 296.67 229.501C273.835 244.171 208.921 282.015 208.277 283.336C207.633 284.658 201.417 237.598 201.417 237.598L310.036 192.911L309.714 189.641L274.479 124.405L285.574 121.221Z" fill="white"/>
</mask>
<g mask="url(#mask1_313_753)">
<path d="M327.331 197.281L276.986 123.762L274.563 124.473L309.798 189.709L310.12 192.978L201.501 237.666C201.501 237.666 201.62 238.479 201.789 239.851L208.87 256.097L327.331 197.281Z" fill="#6266F7"/>
<path opacity="0.5" d="M327.331 197.281L276.986 123.762L274.563 124.473L309.798 189.709L310.12 192.978L201.501 237.666C201.501 237.666 201.62 238.479 201.789 239.851L208.87 256.097L327.331 197.281Z" fill="white"/>
</g>
<path d="M285.574 121.221C285.574 121.221 328.958 172.752 338.088 182.205C347.219 191.657 347.558 198.518 344.61 202.753C341.663 206.988 319.505 214.831 296.67 229.501C273.835 244.171 208.921 282.015 208.277 283.336C207.633 284.658 201.417 237.598 201.417 237.598L310.036 192.911L309.714 189.641L274.479 124.405L285.574 121.221Z" stroke="#263238" stroke-width="0.75" stroke-linecap="round" stroke-linejoin="round"/>
<path d="M251 98.7073C251 98.7073 245.782 94.1335 243.174 98.7073C240.565 103.281 240.243 110.769 241.869 111.429C243.496 112.09 250.017 111.107 251 109.142C251.982 107.177 251 98.7073 251 98.7073Z" fill="white" stroke="#263238" stroke-width="0.75" stroke-linecap="round" stroke-linejoin="round"/>
<path d="M260.131 96.4204C260.131 96.4204 254.592 90.5592 251 92.8292C247.409 95.0991 248.392 107.516 249.696 108.499C251 109.481 258.827 106.805 259.86 105.229C260.893 103.654 260.131 96.4204 260.131 96.4204Z" fill="white" stroke="#263238" stroke-width="0.75" stroke-linecap="round" stroke-linejoin="round"/>
<path d="M272.531 96.7423C272.531 96.7423 267.635 89.9663 263.078 89.9663C258.521 89.9663 255.235 106.28 256.878 107.584C258.521 108.888 269.261 107.262 269.922 106.28C270.968 103.151 271.839 99.9673 272.531 96.7423Z" fill="white" stroke="#263238" stroke-width="0.75" stroke-linecap="round" stroke-linejoin="round"/>
<path d="M282.068 107.838C282.068 105.89 281.102 88.916 275.292 89.8986C269.481 90.8811 263.231 104.586 263.552 106.839C263.874 109.092 282.068 107.838 282.068 107.838Z" fill="white" stroke="#263238" stroke-width="0.75" stroke-linecap="round" stroke-linejoin="round"/>
<path d="M310.036 192.978C310.036 192.978 326.671 199.178 332.871 198.84Z" fill="white"/>
<path d="M310.036 192.978C310.036 192.978 326.671 199.178 332.871 198.84" stroke="#263238" stroke-width="0.75" stroke-linecap="round" stroke-linejoin="round"/>
<path d="M173.245 467.627C190.965 464.645 213.664 452.465 220.423 437.135C215.341 410.556 208.921 373.118 208.921 350.216C208.921 311.728 219.085 289.875 214.46 263.822C209.836 237.768 200.112 220.777 189.677 213.916C189.677 213.916 173.703 218.151 157.389 233.482C141.076 248.813 126.728 275.171 121.138 300.293C115.548 325.415 108.094 402.713 108.094 422.939C108.094 443.165 106.637 468.27 106.637 468.27C126.169 468.27 145.701 468.27 165.233 468.27C167.917 468.296 170.599 468.081 173.245 467.627Z" fill="white"/>
<mask id="mask2_313_753" style="mask-type:luminance" maskUnits="userSpaceOnUse" x="106" y="213" width="115" height="256">
<path d="M173.245 467.627C190.965 464.645 213.664 452.465 220.423 437.135C215.341 410.556 208.921 373.118 208.921 350.216C208.921 311.728 219.085 289.875 214.46 263.822C209.836 237.768 200.112 220.777 189.677 213.916C189.677 213.916 173.703 218.151 157.389 233.482C141.076 248.813 126.728 275.171 121.138 300.293C115.548 325.415 108.094 402.713 108.094 422.939C108.094 443.165 106.637 468.27 106.637 468.27C126.169 468.27 145.701 468.27 165.233 468.27C167.917 468.296 170.599 468.081 173.245 467.627Z" fill="white"/>
</mask>
<g mask="url(#mask2_313_753)">
<path d="M220.423 437.118C210.496 445.588 165.792 462.037 159.27 463.494C152.748 464.95 156.373 451.161 166.52 437.389C176.667 423.617 154.188 442.471 150.563 443.911C146.937 445.351 152.019 417.078 152.019 403.255C152.019 389.432 165.08 272.004 165.08 272.004L189.728 227.028L198.198 221.946C195.832 218.801 192.971 216.061 189.728 213.832C189.728 213.832 173.753 218.067 157.44 233.397C141.127 248.728 126.728 275.172 121.138 300.294C115.548 325.416 108.094 402.713 108.094 422.939C108.094 443.166 106.637 468.271 106.637 468.271C126.169 468.271 145.701 468.271 165.233 468.271C167.908 468.272 170.578 468.034 173.211 467.559C190.965 464.645 213.664 452.466 220.423 437.118Z" fill="#6266F7"/>
<path opacity="0.5" d="M220.423 437.118C210.496 445.588 165.792 462.037 159.27 463.494C152.748 464.95 156.373 451.161 166.52 437.389C176.667 423.617 154.188 442.471 150.563 443.911C146.937 445.351 152.019 417.078 152.019 403.255C152.019 389.432 165.08 272.004 165.08 272.004L189.728 227.028L198.198 221.946C195.832 218.801 192.971 216.061 189.728 213.832C189.728 213.832 173.753 218.067 157.44 233.397C141.127 248.728 126.728 275.172 121.138 300.294C115.548 325.416 108.094 402.713 108.094 422.939C108.094 443.166 106.637 468.271 106.637 468.271C126.169 468.271 145.701 468.271 165.233 468.271C167.908 468.272 170.578 468.034 173.211 467.559C190.965 464.645 213.664 452.466 220.423 437.118Z" fill="white"/>
</g>
<path d="M173.245 467.627C190.965 464.645 213.664 452.465 220.423 437.135C215.341 410.556 208.921 373.118 208.921 350.216C208.921 311.728 219.085 289.875 214.46 263.822C209.836 237.768 200.112 220.777 189.677 213.916C189.677 213.916 173.703 218.151 157.389 233.482C141.076 248.813 126.728 275.171 121.138 300.293C115.548 325.415 108.094 402.713 108.094 422.939C108.094 443.165 106.637 468.27 106.637 468.27C126.169 468.27 145.701 468.27 165.233 468.27C167.917 468.296 170.599 468.081 173.245 467.627Z" stroke="#263238" stroke-width="0.75" stroke-linecap="round" stroke-linejoin="round"/>
<path d="M188.729 219.913L216.747 270.936L218.255 298.921C218.255 298.921 226.064 278.966 222.592 265.939C219.119 252.912 188.729 219.913 188.729 219.913Z" fill="#263238" stroke="#263238" stroke-width="0.75" stroke-linecap="round" stroke-linejoin="round"/>
<path d="M218.238 298.938L210.429 417.027L219.119 441.336L225.2 392.701L219.983 295.448L218.238 298.938Z" fill="#263238" stroke="#263238" stroke-width="0.75" stroke-linecap="round" stroke-linejoin="round"/>
<path d="M210.548 172.091C210.548 172.091 211.53 184.813 212.513 191.013C213.495 197.213 198.164 214.56 198.164 214.56L220.339 248.152L245.461 228.586C245.461 228.586 281.035 225.978 284.27 223.03C287.506 220.082 287.54 187.812 287.54 187.812L296.01 182.916C296.01 182.916 288.184 149.036 286.235 141.481L284.27 133.993C284.27 133.993 295.688 130.063 293.079 118.747C290.47 107.431 273.835 101.807 257.2 104.382C240.565 106.957 236.33 113.191 236.33 113.191C236.33 113.191 212.834 112.869 199.469 123.965C186.103 135.061 194.251 152.661 198.486 158.861C202.09 163.634 206.128 168.063 210.548 172.091Z" fill="white"/>
<mask id="mask3_313_753" style="mask-type:luminance" maskUnits="userSpaceOnUse" x="192" y="103" width="105" height="146">
<path d="M210.548 172.091C210.548 172.091 211.53 184.813 212.513 191.013C213.495 197.213 198.164 214.56 198.164 214.56L220.339 248.152L245.461 228.586C245.461 228.586 281.035 225.978 284.27 223.03C287.506 220.082 287.54 187.812 287.54 187.812L296.01 182.916C296.01 182.916 288.184 149.036 286.235 141.481L284.27 133.993C284.27 133.993 295.688 130.063 293.079 118.747C290.47 107.431 273.835 101.807 257.2 104.382C240.565 106.957 236.33 113.191 236.33 113.191C236.33 113.191 212.834 112.869 199.469 123.965C186.103 135.061 194.251 152.661 198.486 158.861C202.09 163.634 206.128 168.063 210.548 172.091Z" fill="white"/>
</mask>
<g mask="url(#mask3_313_753)">
<path d="M249.882 217.66C243.36 209.681 249.882 179.223 254.964 163.994C260.046 148.765 247.714 142.243 247.714 142.243L284.745 135.857L284.237 133.943C286.741 132.964 288.968 131.388 290.725 129.352L292.723 117.579C289.335 106.872 273.293 101.723 257.149 104.247C240.514 106.855 236.279 113.056 236.279 113.056C236.279 113.056 212.784 112.734 199.418 123.829C186.052 134.925 194.2 152.526 198.435 158.726C202.033 163.545 206.07 168.02 210.497 172.091C210.497 172.091 211.479 184.813 212.462 191.013C213.444 197.213 198.164 214.56 198.164 214.56L220.339 248.152L245.461 228.586C245.461 228.586 272.565 226.587 281.645 224.131L284.27 223.03C284.27 223.03 256.438 225.639 249.882 217.66Z" fill="#6266F7"/>
<path opacity="0.5" d="M249.882 217.66C243.36 209.681 249.882 179.223 254.964 163.994C260.046 148.765 247.714 142.243 247.714 142.243L284.745 135.857L284.237 133.943C286.741 132.964 288.968 131.388 290.725 129.352L292.723 117.579C289.335 106.872 273.293 101.723 257.149 104.247C240.514 106.855 236.279 113.056 236.279 113.056C236.279 113.056 212.784 112.734 199.418 123.829C186.052 134.925 194.2 152.526 198.435 158.726C202.033 163.545 206.07 168.02 210.497 172.091C210.497 172.091 211.479 184.813 212.462 191.013C213.444 197.213 198.164 214.56 198.164 214.56L220.339 248.152L245.461 228.586C245.461 228.586 272.565 226.587 281.645 224.131L284.27 223.03C284.27 223.03 256.438 225.639 249.882 217.66Z" fill="white"/>
<path d="M268.94 157.1C268.94 157.1 268.94 156.591 268.94 155.795C268.94 153.271 269.363 147.816 273.582 146.326C279.121 144.378 283.746 149.595 283.746 149.595L284.067 154.813C283.27 153.816 282.223 153.05 281.032 152.591C279.842 152.133 278.551 151.999 277.291 152.204C274.05 152.885 271.118 154.604 268.94 157.1Z" fill="#263238"/>
<path d="M278.409 167.535C278.409 170.228 277.664 172.43 276.715 172.43C275.766 172.43 275.021 170.228 275.021 167.535C275.021 164.841 275.749 162.639 276.715 162.639C277.681 162.639 278.409 164.824 278.409 167.535Z" fill="#263238"/>
<path d="M268.127 201.703C266.314 203.583 263.892 204.193 262.723 203.075C261.554 201.957 262.079 199.5 263.892 197.62C265.704 195.74 268.11 195.13 269.279 196.248C270.447 197.366 269.939 199.822 268.127 201.703Z" fill="#263238"/>
</g>
<path d="M210.548 172.091C210.548 172.091 211.53 184.813 212.513 191.013C213.495 197.213 198.164 214.56 198.164 214.56L220.339 248.152L245.461 228.586C245.461 228.586 281.035 225.978 284.27 223.03C287.506 220.082 287.54 187.812 287.54 187.812L296.01 182.916C296.01 182.916 288.184 149.036 286.235 141.481L284.27 133.993C284.27 133.993 295.688 130.063 293.079 118.747C290.47 107.431 273.835 101.807 257.2 104.382C240.565 106.957 236.33 113.191 236.33 113.191C236.33 113.191 212.834 112.869 199.469 123.965C186.103 135.061 194.251 152.661 198.486 158.861C202.09 163.634 206.128 168.063 210.548 172.091Z" stroke="#263238" stroke-width="0.75" stroke-linecap="round" stroke-linejoin="round"/>
<path d="M241.87 140.126C247.748 136.212 284.22 133.943 284.22 133.943C284.22 133.943 295.637 130.012 293.028 118.697C290.42 107.381 273.785 101.757 257.149 104.331C240.514 106.906 236.279 113.14 236.279 113.14C236.279 113.14 212.784 112.818 199.418 123.914C186.052 135.01 194.2 152.61 198.435 158.81C202.033 163.63 206.07 168.105 210.497 172.176C210.497 172.176 211.039 179.155 211.716 185.305L221.88 188.167L232.976 182.289L244.072 179.681C244.072 179.681 235.907 173.48 240.481 167.619C245.054 161.758 253.524 159.793 253.846 155.219C254.168 150.645 235.991 144.039 241.87 140.126Z" fill="#263238" stroke="#263238" stroke-width="0.75" stroke-linecap="round" stroke-linejoin="round"/>
<path d="M277.477 121.17C277.477 121.17 273.649 114.157 280.662 115.427C287.675 116.698 287.675 128.827 281.933 131.368C276.19 133.909 244.952 128.183 227.725 133.282C210.497 138.381 198.401 152.407 198.401 152.407" stroke="white" stroke-miterlimit="10" stroke-linecap="round"/>
<path d="M207.973 163.249C207.973 163.249 221.372 151.78 232.197 149.866C243.022 147.952 248.781 147.952 236.669 154.948C224.557 161.944 232.841 160.674 240.497 158.133" stroke="white" stroke-miterlimit="10" stroke-linecap="round"/>
<path d="M235.991 188.405C235.991 188.405 234.043 167.856 223.93 167.213C213.817 166.569 214.139 181.239 217.154 191.352C220.169 201.465 227.318 204.718 233.128 199.5" fill="#6266F7"/>
<mask id="mask4_313_753" style="mask-type:luminance" maskUnits="userSpaceOnUse" x="215" y="167" width="21" height="35">
<path d="M235.991 188.405C235.991 188.405 234.043 167.856 223.93 167.213C213.817 166.569 214.139 181.239 217.154 191.352C220.169 201.465 227.318 204.718 233.128 199.5" fill="white"/>
</mask>
<g mask="url(#mask4_313_753)">
<g opacity="0.5">
<path d="M235.991 188.405C235.991 188.405 234.043 167.856 223.93 167.213C213.817 166.569 214.139 181.239 217.154 191.352C220.169 201.465 227.318 204.718 233.128 199.5" fill="white"/>
<path d="M235.991 188.405C235.991 188.405 234.043 167.856 223.93 167.213C213.817 166.569 214.139 181.239 217.154 191.352C220.169 201.465 227.318 204.718 233.128 199.5" stroke="#263238" stroke-width="0.75" stroke-linecap="round" stroke-linejoin="round"/>
</g>
</g>
<path d="M235.991 188.405C235.991 188.405 234.043 167.856 223.93 167.213C213.817 166.569 214.139 181.239 217.154 191.352C220.169 201.465 227.318 204.718 233.128 199.5" stroke="#263238" stroke-width="0.75" stroke-linecap="round" stroke-linejoin="round"/>
<path d="M199.062 202.109L231.688 251.693L216.68 270.936C209.92 257.897 202.409 245.261 194.183 233.092C183.088 217.44 181.783 214.831 181.783 214.831L199.062 202.109Z" fill="white"/>
<mask id="mask5_313_753" style="mask-type:luminance" maskUnits="userSpaceOnUse" x="181" y="202" width="51" height="69">
<path d="M199.062 202.109L231.688 251.693L216.68 270.936C209.92 257.897 202.409 245.261 194.183 233.092C183.088 217.44 181.783 214.831 181.783 214.831L199.062 202.109Z" fill="white"/>
</mask>
<g mask="url(#mask5_313_753)">
<path d="M199.062 202.109L181.783 214.831C181.783 214.831 182.749 216.745 189.864 226.96L208.125 215.881L199.062 202.109Z" fill="#6266F7"/>
<path opacity="0.5" d="M199.062 202.109L181.783 214.831C181.783 214.831 182.749 216.745 189.864 226.96L208.125 215.881L199.062 202.109Z" fill="white"/>
</g>
<path d="M199.062 202.109L231.688 251.693L216.68 270.936C209.92 257.897 202.409 245.261 194.183 233.092C183.088 217.44 181.783 214.831 181.783 214.831L199.062 202.109Z" stroke="#263238" stroke-width="0.75" stroke-linecap="round" stroke-linejoin="round"/>
<path d="M282.966 325.415C282.966 325.415 288.183 314.642 289.166 307.798C290.148 300.954 290.47 297.024 294.383 293.771C298.297 290.519 311.018 277.458 313.017 272.563C315.016 267.667 316.27 272.241 317.252 276.154C318.235 280.067 317.896 283.658 314.644 285.945C312.352 287.646 310.27 289.614 308.444 291.806L311.374 294.093C311.374 294.093 352.149 278.763 356.401 277.153C360.653 275.544 364.549 276.815 364.871 280.084C365.193 283.353 363.905 283.675 361.94 284.658C359.975 285.64 338.461 293.128 335.514 294.432L332.583 295.737L334.87 298.023C334.87 298.023 346.609 297.702 352.488 297.38C358.366 297.058 367.158 296.075 368.462 298.023C369.044 298.895 369.267 299.958 369.084 300.99C368.9 302.023 368.326 302.944 367.48 303.563C366.794 304.22 365.968 304.714 365.065 305.007C364.161 305.301 363.203 305.386 362.262 305.257C359.331 305.257 334.209 307.205 334.209 307.205L334.87 310.796C334.87 310.796 361.618 315.031 362.584 316.336C363.549 317.64 363.566 318.301 362.584 320.249C361.601 322.197 360.89 322.214 358.349 322.214C355.808 322.214 334.633 318.944 334.633 318.944C334.633 318.944 345.068 324.823 346.372 325.805C347.677 326.788 352.233 327.499 350.929 329.718C349.625 331.937 348.981 332.649 347.016 332.327C345.051 332.005 331.042 325.805 331.042 325.805C331.042 325.805 317.015 327.753 312.408 328.092C309.016 328.249 305.617 328.136 302.244 327.753L289.2 336.223L282.966 325.415Z" fill="white" stroke="#263238" stroke-width="0.75" stroke-linecap="round" stroke-linejoin="round"/>
<path d="M190.338 310.728C190.338 310.728 180.868 271.258 176.955 262.449C173.042 253.641 150.868 245.509 140.094 264.736C129.32 283.963 139.111 305.833 143.041 321.485C146.971 337.138 171.738 407.879 175.329 416.739C178.92 425.599 185.493 423.515 189.033 422.617C192.574 421.719 291.775 341.712 291.775 341.712L283.948 324.111L206.973 363.632L190.338 310.728Z" fill="white"/>
<mask id="mask6_313_753" style="mask-type:luminance" maskUnits="userSpaceOnUse" x="135" y="252" width="157" height="172">
<path d="M190.338 310.728C190.338 310.728 180.868 271.258 176.955 262.449C173.042 253.641 150.868 245.509 140.094 264.736C129.32 283.963 139.111 305.833 143.041 321.485C146.971 337.138 171.738 407.879 175.329 416.739C178.92 425.599 185.493 423.515 189.033 422.617C192.574 421.719 291.775 341.712 291.775 341.712L283.948 324.111L206.973 363.632L190.338 310.728Z" fill="white"/>
</mask>
<g mask="url(#mask6_313_753)">
<path d="M187.56 397.512C190.073 389.876 192.973 382.373 196.25 375.033C199.875 367.782 178.852 391.718 174.499 378.658C170.145 365.597 142.601 300.344 147.666 278.593C149.863 268.487 155.776 259.576 164.233 253.624C156.153 251.709 146.26 253.742 140.094 264.753C129.337 283.997 139.111 305.85 143.041 321.502C146.971 337.155 171.738 407.896 175.329 416.756C178.92 425.615 185.493 423.532 189.033 422.634C191.642 421.922 244.935 379.352 273.733 356.263L187.56 397.512Z" fill="#6266F7"/>
<path opacity="0.5" d="M187.56 397.512C190.073 389.876 192.973 382.373 196.25 375.033C199.875 367.782 178.852 391.718 174.499 378.658C170.145 365.597 142.601 300.344 147.666 278.593C149.863 268.487 155.776 259.576 164.233 253.624C156.153 251.709 146.26 253.742 140.094 264.753C129.337 283.997 139.111 305.85 143.041 321.502C146.971 337.155 171.738 407.896 175.329 416.756C178.92 425.615 185.493 423.532 189.033 422.634C191.642 421.922 244.935 379.352 273.733 356.263L187.56 397.512Z" fill="white"/>
</g>
<path d="M190.338 310.728C190.338 310.728 180.868 271.258 176.955 262.449C173.042 253.641 150.868 245.509 140.094 264.736C129.32 283.963 139.111 305.833 143.041 321.485C146.971 337.138 171.738 407.879 175.329 416.739C178.92 425.599 185.493 423.515 189.033 422.617C192.574 421.719 291.775 341.712 291.775 341.712L283.948 324.111L206.973 363.632L190.338 310.728Z" stroke="#263238" stroke-width="0.75" stroke-linecap="round" stroke-linejoin="round"/>
<path d="M272.531 330.633L281.34 348.572" stroke="#263238" stroke-width="0.75" stroke-linecap="round" stroke-linejoin="round"/>
<path d="M65.6087 240.631L20.5483 271.885C20.5483 271.885 42.7567 295.364 40.4698 356.958C38.7758 404 44.9928 457.412 54.0218 468.27H101.996C101.996 468.27 85.4116 376.794 86.5974 324.382C87.5291 284.556 75.5695 256.91 65.6087 240.631Z" fill="white" stroke="#263238" stroke-width="0.75" stroke-linecap="round" stroke-linejoin="round"/>
<path d="M71.0296 240.631L25.9692 271.885C25.9692 271.885 48.1776 295.364 45.8737 356.958C44.1797 404 50.3967 457.412 59.4257 468.27H107.417C107.417 468.27 90.8494 376.794 92.0352 324.382C92.9331 284.556 80.9734 256.91 71.0296 240.631Z" fill="#263238" stroke="#263238" stroke-width="0.75" stroke-linecap="round" stroke-linejoin="round"/>
<path d="M65.6089 240.631H71.0297L25.9693 271.885H20.5654L65.6089 240.631Z" fill="white" stroke="#263238" stroke-width="0.75" stroke-linecap="round" stroke-linejoin="round"/>
</g>
</svg>
