<svg width="531" height="116" viewBox="0 0 531 116" fill="none" xmlns="http://www.w3.org/2000/svg">
<mask id="path-1-outside-1_430_566" maskUnits="userSpaceOnUse" x="505.721" y="83.3687" width="26" height="26" fill="black">
<rect fill="white" x="505.721" y="83.3687" width="26" height="26"/>
<path d="M506.721 96.6662C506.721 94.275 507.251 92.1571 508.31 90.3125C509.369 88.4679 510.786 87.0161 512.563 85.9571C514.373 84.8982 516.406 84.3687 518.66 84.3687C520.915 84.3687 522.947 84.8982 524.758 85.9571C526.568 87.0161 527.986 88.4679 529.011 90.3125C530.07 92.1571 530.599 94.275 530.599 96.6662C530.599 99.0233 530.07 101.141 529.011 103.02C527.986 104.865 526.568 106.316 524.758 107.375C522.947 108.434 520.915 108.964 518.66 108.964C516.406 108.964 514.373 108.434 512.563 107.375C510.786 106.316 509.369 104.865 508.31 103.02C507.251 101.141 506.721 99.0233 506.721 96.6662ZM507.234 96.6662C507.234 98.9549 507.729 100.987 508.72 102.764C509.745 104.54 511.128 105.941 512.87 106.965C514.612 107.956 516.542 108.451 518.66 108.451C520.812 108.451 522.742 107.956 524.45 106.965C526.193 105.941 527.559 104.54 528.55 102.764C529.574 100.987 530.087 98.9549 530.087 96.6662C530.087 94.3775 529.574 92.345 528.55 90.5687C527.559 88.7924 526.193 87.4089 524.45 86.4183C522.742 85.3935 520.812 84.8811 518.66 84.8811C516.542 84.8811 514.612 85.3935 512.87 86.4183C511.128 87.4089 509.745 88.7924 508.72 90.5687C507.729 92.345 507.234 94.3775 507.234 96.6662Z"/>
</mask>
<path d="M506.721 96.6662C506.721 94.275 507.251 92.1571 508.31 90.3125C509.369 88.4679 510.786 87.0161 512.563 85.9571C514.373 84.8982 516.406 84.3687 518.66 84.3687C520.915 84.3687 522.947 84.8982 524.758 85.9571C526.568 87.0161 527.986 88.4679 529.011 90.3125C530.07 92.1571 530.599 94.275 530.599 96.6662C530.599 99.0233 530.07 101.141 529.011 103.02C527.986 104.865 526.568 106.316 524.758 107.375C522.947 108.434 520.915 108.964 518.66 108.964C516.406 108.964 514.373 108.434 512.563 107.375C510.786 106.316 509.369 104.865 508.31 103.02C507.251 101.141 506.721 99.0233 506.721 96.6662ZM507.234 96.6662C507.234 98.9549 507.729 100.987 508.72 102.764C509.745 104.54 511.128 105.941 512.87 106.965C514.612 107.956 516.542 108.451 518.66 108.451C520.812 108.451 522.742 107.956 524.45 106.965C526.193 105.941 527.559 104.54 528.55 102.764C529.574 100.987 530.087 98.9549 530.087 96.6662C530.087 94.3775 529.574 92.345 528.55 90.5687C527.559 88.7924 526.193 87.4089 524.45 86.4183C522.742 85.3935 520.812 84.8811 518.66 84.8811C516.542 84.8811 514.612 85.3935 512.87 86.4183C511.128 87.4089 509.745 88.7924 508.72 90.5687C507.729 92.345 507.234 94.3775 507.234 96.6662Z" fill="black"/>
<path d="M508.31 90.3125L508.57 90.4619L508.57 90.4619L508.31 90.3125ZM512.563 85.9571L512.411 85.6982L512.409 85.6994L512.563 85.9571ZM524.758 85.9571L524.606 86.2161L524.606 86.2161L524.758 85.9571ZM529.011 90.3125L528.749 90.4582L528.751 90.4619L529.011 90.3125ZM529.011 103.02L528.749 102.873L528.749 102.874L529.011 103.02ZM524.758 107.375L524.606 107.116L524.606 107.116L524.758 107.375ZM512.563 107.375L512.409 107.633L512.411 107.634L512.563 107.375ZM508.31 103.02L508.049 103.167L508.05 103.169L508.31 103.02ZM508.72 102.764L508.458 102.91L508.46 102.914L508.72 102.764ZM512.87 106.965L512.718 107.224L512.722 107.226L512.87 106.965ZM524.45 106.965L524.601 107.225L524.603 107.224L524.45 106.965ZM528.55 102.764L528.29 102.614L528.288 102.618L528.55 102.764ZM528.55 90.5687L528.288 90.7148L528.29 90.7186L528.55 90.5687ZM524.45 86.4183L524.296 86.6756L524.302 86.6791L524.45 86.4183ZM512.87 86.4183L513.019 86.6791L513.022 86.6769L512.87 86.4183ZM508.72 90.5687L508.46 90.4188L508.458 90.4226L508.72 90.5687ZM507.021 96.6662C507.021 94.3208 507.54 92.2556 508.57 90.4619L508.05 90.1631C506.962 92.0587 506.421 94.2293 506.421 96.6662H507.021ZM508.57 90.4619C509.604 88.6605 510.986 87.2466 512.716 86.2148L512.409 85.6994C510.587 86.7855 509.134 88.2752 508.05 90.1631L508.57 90.4619ZM512.714 86.2161C514.475 85.186 516.455 84.6687 518.66 84.6687V84.0687C516.357 84.0687 514.271 84.6103 512.411 85.6982L512.714 86.2161ZM518.66 84.6687C520.866 84.6687 522.845 85.186 524.606 86.2161L524.909 85.6982C523.049 84.6103 520.964 84.0687 518.66 84.0687V84.6687ZM524.606 86.2161C526.37 87.2477 527.75 88.6603 528.749 90.4582L529.273 90.1668C528.222 88.2755 526.767 86.7844 524.909 85.6982L524.606 86.2161ZM528.751 90.4619C529.78 92.2556 530.299 94.3208 530.299 96.6662H530.899C530.899 94.2293 530.359 92.0587 529.271 90.1631L528.751 90.4619ZM530.299 96.6662C530.299 98.9766 529.781 101.043 528.749 102.873L529.272 103.167C530.359 101.239 530.899 99.0699 530.899 96.6662H530.299ZM528.749 102.874C527.75 104.672 526.37 106.085 524.606 107.116L524.909 107.634C526.767 106.548 528.222 105.057 529.273 103.166L528.749 102.874ZM524.606 107.116C522.845 108.146 520.866 108.664 518.66 108.664V109.264C520.964 109.264 523.049 108.722 524.909 107.634L524.606 107.116ZM518.66 108.664C516.455 108.664 514.475 108.146 512.714 107.116L512.411 107.634C514.271 108.722 516.357 109.264 518.66 109.264V108.664ZM512.716 107.118C510.986 106.086 509.604 104.672 508.57 102.871L508.05 103.169C509.134 105.057 510.587 106.547 512.409 107.633L512.716 107.118ZM508.571 102.873C507.54 101.043 507.021 98.9766 507.021 96.6662H506.421C506.421 99.07 506.962 101.239 508.049 103.167L508.571 102.873ZM506.934 96.6662C506.934 98.9996 507.439 101.084 508.458 102.91L508.982 102.618C508.019 100.891 507.534 98.9103 507.534 96.6662H506.934ZM508.46 102.914C509.51 104.734 510.931 106.173 512.718 107.224L513.022 106.707C511.326 105.709 509.979 104.346 508.98 102.614L508.46 102.914ZM512.722 107.226C514.512 108.244 516.493 108.751 518.66 108.751V108.151C516.591 108.151 514.713 107.668 513.019 106.705L512.722 107.226ZM518.66 108.751C520.86 108.751 522.843 108.244 524.601 107.225L524.3 106.706C522.642 107.668 520.764 108.151 518.66 108.151V108.751ZM524.603 107.224C526.391 106.172 527.795 104.732 528.812 102.91L528.288 102.618C527.323 104.348 525.994 105.709 524.298 106.707L524.603 107.224ZM528.809 102.914C529.864 101.087 530.387 99.0013 530.387 96.6662H529.787C529.787 98.9086 529.285 100.888 528.29 102.614L528.809 102.914ZM530.387 96.6662C530.387 94.3311 529.864 92.2458 528.809 90.4188L528.29 90.7186C529.285 92.4442 529.787 94.4239 529.787 96.6662H530.387ZM528.812 90.4226C527.795 88.5991 526.389 87.1757 524.599 86.1575L524.302 86.6791C525.996 87.6422 527.323 88.9857 528.288 90.7148L528.812 90.4226ZM524.605 86.161C522.846 85.106 520.862 84.5811 518.66 84.5811V85.1811C520.763 85.1811 522.638 85.681 524.296 86.6755L524.605 86.161ZM518.66 84.5811C516.492 84.5811 514.509 85.1065 512.718 86.1597L513.022 86.6769C514.716 85.6805 516.593 85.1811 518.66 85.1811V84.5811ZM512.722 86.1575C510.932 87.1751 509.511 88.5974 508.46 90.4188L508.98 90.7186C509.978 88.9874 511.324 87.6427 513.019 86.6791L512.722 86.1575ZM508.458 90.4226C507.439 92.2489 506.934 94.3329 506.934 96.6662H507.534C507.534 94.4221 508.019 92.4411 508.982 90.7148L508.458 90.4226Z" fill="black" mask="url(#path-1-outside-1_430_566)"/>
<path d="M498.602 106.171L498.602 106.171L498.599 106.173C497.71 106.739 496.615 107.246 495.312 107.694C494.059 108.098 492.681 108.301 491.178 108.301C488.662 108.301 486.372 107.713 484.305 106.538C482.238 105.322 480.597 103.661 479.38 101.552C478.206 99.4459 477.617 97.0329 477.617 94.3092C477.617 91.5854 478.206 89.1725 479.38 87.0661C480.597 84.9576 482.238 83.3171 484.304 82.142L484.304 82.142L484.306 82.1409C486.373 80.9254 488.662 80.317 491.178 80.317C492.68 80.317 494.057 80.5402 495.309 80.9847L495.309 80.9848L495.315 80.9865C496.617 81.3936 497.711 81.8805 498.599 82.4456L498.599 82.4456L498.602 82.4472C499.539 83.0178 500.199 83.5405 500.594 84.0138L500.859 84.332V83.9177V83.1184V83.0614L500.821 83.0187C500.145 82.2577 498.933 81.4684 497.207 80.6464C495.462 79.8154 493.451 79.4021 491.178 79.4021C488.448 79.4021 485.983 80.0436 483.786 81.3288L483.786 81.3288L483.785 81.3294C481.63 82.6137 479.911 84.3748 478.628 86.61C477.342 88.849 476.702 91.4169 476.702 94.3092C476.702 97.1609 477.343 99.7282 478.627 102.007L478.628 102.008C479.911 104.244 481.63 106.005 483.785 107.289L483.786 107.29C485.983 108.575 488.448 109.216 491.178 109.216C493.45 109.216 495.46 108.824 497.205 108.035L497.205 108.035L497.207 108.033C498.934 107.211 500.147 106.4 500.824 105.597L500.859 105.555V105.5V104.701V104.286L500.594 104.605C500.199 105.078 499.539 105.601 498.602 106.171Z" fill="black" stroke="black" stroke-width="0.3"/>
<path d="M449.078 86.6685L449.078 86.6685L449.08 86.6709L450.748 88.5702C450.604 88.644 450.456 88.7187 450.305 88.7943C449.377 89.2409 448.417 89.7728 447.422 90.3899C446.422 91.0108 445.491 91.7522 444.63 92.6135C443.762 93.4462 443.052 94.4341 442.499 95.5759L442.499 95.5759L442.497 95.5793C441.974 96.7298 441.715 98.0669 441.715 99.5868C441.715 101.626 442.182 103.364 443.123 104.793L443.125 104.795C444.097 106.219 445.382 107.296 446.978 108.024L446.979 108.025C448.606 108.751 450.403 109.114 452.369 109.114C454.681 109.114 456.723 108.596 458.491 107.556C460.282 106.522 461.884 105.179 463.294 103.528C463.392 103.416 463.49 103.303 463.587 103.19L468.295 108.55L468.339 108.601H468.407H469.073H469.404L469.186 108.352L464.116 102.563C465.251 101.192 466.331 99.7325 467.354 98.1835L467.355 98.1825C468.617 96.2381 469.913 94.3792 471.243 92.6057L471.341 92.4751L471.203 92.3885L470.793 92.1323L470.673 92.0577L470.591 92.1721C469.292 93.984 468.01 95.8472 466.745 97.7615C465.741 99.2541 464.694 100.66 463.604 101.979L452.048 88.7855C452.48 88.5432 452.886 88.3095 453.266 88.0844L453.266 88.084C454.465 87.3647 455.528 86.6617 456.455 85.9751L456.455 85.9751L456.458 85.973C457.386 85.2513 458.162 84.5277 458.784 83.8017C459.442 83.0747 459.93 82.3268 460.245 81.5574C460.594 80.7534 460.769 79.9138 460.769 79.0397C460.769 77.9231 460.507 76.8257 459.987 75.7488C459.496 74.6293 458.709 73.7037 457.63 72.9723C456.573 72.233 455.208 71.8698 453.548 71.8698C451.822 71.8698 450.36 72.1977 449.171 72.8621C448.021 73.4896 447.146 74.346 446.551 75.4311C445.957 76.4798 445.661 77.6497 445.661 78.9372C445.661 80.179 445.816 81.2717 446.129 82.2127L446.129 82.2128L446.132 82.2191C446.478 83.1182 446.91 83.9323 447.431 84.6607L447.43 84.6609L447.436 84.6673C447.983 85.3514 448.53 86.0185 449.078 86.6685ZM451.301 89.1998L463.076 102.608C462.971 102.73 462.866 102.852 462.76 102.973C461.37 104.567 459.828 105.854 458.135 106.836C456.453 107.812 454.532 108.301 452.369 108.301C450.508 108.301 448.839 107.98 447.357 107.341C445.879 106.669 444.706 105.679 443.835 104.371C442.966 103.068 442.528 101.476 442.528 99.5868C442.528 97.7976 442.899 96.3066 443.632 95.106C444.408 93.8918 445.351 92.8814 446.462 92.0734L446.463 92.0729C447.618 91.2237 448.806 90.4938 450.028 89.8829L450.028 89.883L450.031 89.8814C450.474 89.6476 450.897 89.4204 451.301 89.1998ZM452.753 87.4681C452.38 87.6919 451.966 87.9261 451.51 88.1709L449.666 86.0651C449.665 86.0648 449.665 86.0645 449.665 86.0641C448.918 85.1813 448.187 84.2132 447.474 83.1595C446.811 82.0979 446.473 80.6943 446.473 78.9372C446.473 77.2683 447.056 75.819 448.225 74.5824L448.225 74.5824L448.227 74.5809C449.384 73.3239 451.148 72.6822 453.548 72.6822C455.063 72.6822 456.277 73.0189 457.201 73.6791L457.201 73.6791L457.203 73.6805C458.173 74.349 458.871 75.1816 459.303 76.1786L459.303 76.1803C459.74 77.1543 459.956 78.107 459.956 79.0397C459.956 80.5654 459.328 82.0164 458.049 83.3956L458.049 83.3957C456.798 84.7481 455.035 86.106 452.754 87.4679L452.753 87.4681Z" fill="black" stroke="black" stroke-width="0.3"/>
<path d="M388.591 108.451V91.3576H432.002V108.451H388.591ZM388.591 39.462V22.3684H432.002V39.462H388.591ZM388.591 71.5586V54.8339H429.542V71.5586H388.591ZM374.818 22.3684H394.74V108.451H374.818V22.3684Z" fill="black"/>
<path d="M306.3 65.4101C306.3 70.657 307.488 75.2071 309.866 79.0604C312.244 82.8316 315.359 85.701 319.212 87.6687C323.147 89.6363 327.452 90.6201 332.125 90.6201C336.224 90.6201 339.831 90.0872 342.946 89.0214C346.062 87.9556 348.849 86.5619 351.309 84.8402C353.768 83.1186 355.941 81.2739 357.826 79.3063V101.688C354.383 104.393 350.612 106.525 346.513 108.083C342.414 109.64 337.208 110.419 330.895 110.419C324.008 110.419 317.654 109.353 311.834 107.222C306.013 105.09 301.012 102.016 296.831 97.9986C292.649 93.9814 289.411 89.2263 287.116 83.7334C284.82 78.2405 283.672 72.1327 283.672 65.4101C283.672 58.6874 284.82 52.5797 287.116 47.0868C289.411 41.5938 292.649 36.8388 296.831 32.8216C301.012 28.8044 306.013 25.73 311.834 23.5984C317.654 21.4669 324.008 20.4011 330.895 20.4011C337.208 20.4011 342.414 21.1799 346.513 22.7376C350.612 24.2953 354.383 26.4269 357.826 29.1323V51.5139C355.941 49.5463 353.768 47.7016 351.309 45.98C348.849 44.1763 346.062 42.7826 342.946 41.7988C339.831 40.733 336.224 40.2001 332.125 40.2001C327.452 40.2001 323.147 41.1839 319.212 43.1515C315.359 45.1191 312.244 47.9886 309.866 51.7598C307.488 55.5311 306.3 60.0811 306.3 65.4101Z" fill="black"/>
<path d="M245.496 7.52149H244.996V8.02149V63.4364L176.531 2.62617L175.699 1.88715V3V108.451V108.951H176.199H199.442H199.942V108.451V53.035L268.55 113.847L269.382 114.584V113.473V8.02149V7.52149H268.882H245.496Z" fill="#6510DC" stroke="#6510DC"/>
<path d="M97.7796 91.8498L99.2553 75.986H141.928L143.281 91.8498H97.7796ZM120.284 53.9734L108.233 81.7659L109.216 86.316L98.5175 108.452H75.0292L120.284 16.9578L165.662 108.452H142.051L131.721 87.1768L132.459 81.8888L120.284 53.9734Z" fill="black"/>
<path d="M5.90282 40.9377V22.3684H73.4163L32.7115 90.6198H68.9892V108.451H0L40.09 40.9377H5.90282Z" fill="black"/>
</svg>
