<svg width="531" height="116" viewBox="0 0 531 116" fill="none" xmlns="http://www.w3.org/2000/svg">
<path d="M512.487 85.8276L512.487 85.8276L512.486 85.8282C510.687 86.9008 509.251 88.3715 508.18 90.2378C507.106 92.1079 506.572 94.2521 506.572 96.6662C506.572 99.0466 507.107 101.19 508.179 103.094L508.18 103.095C509.251 104.961 510.687 106.432 512.486 107.504L512.487 107.505C514.322 108.578 516.381 109.114 518.661 109.114C520.94 109.114 522.999 108.578 524.834 107.505C526.668 106.432 528.104 104.961 529.142 103.093C530.215 101.19 530.749 99.0464 530.749 96.6662C530.749 94.2525 530.215 92.1086 529.142 90.2387C528.104 88.3712 526.667 86.9001 524.834 85.8276C522.999 84.7542 520.94 84.2187 518.661 84.2187C516.381 84.2187 514.322 84.7542 512.487 85.8276ZM528.42 102.689L528.419 102.691C527.441 104.444 526.094 105.825 524.375 106.836C522.692 107.812 520.789 108.301 518.661 108.301C516.567 108.301 514.664 107.812 512.946 106.836C511.227 105.824 509.862 104.443 508.851 102.69C507.874 100.939 507.384 98.9322 507.384 96.6662C507.384 94.4002 507.874 92.3937 508.851 90.6427C509.862 88.8894 511.227 87.5256 512.945 86.5486L512.945 86.5487L512.947 86.5475C514.665 85.537 516.568 85.0311 518.661 85.0311C520.788 85.0311 522.691 85.5372 524.374 86.5469L524.373 86.5469L524.377 86.5486C526.094 87.5255 527.441 88.889 528.419 90.6417L528.419 90.6417L528.42 90.6436C529.43 92.3946 529.937 94.4007 529.937 96.6662C529.937 98.9317 529.43 100.938 528.42 102.689Z" fill="black" stroke="black" stroke-width="0.3"/>
<path d="M498.602 106.171L498.602 106.171L498.599 106.173C497.71 106.739 496.615 107.246 495.312 107.694C494.058 108.098 492.681 108.301 491.178 108.301C488.662 108.301 486.372 107.713 484.305 106.538C482.238 105.322 480.597 103.661 479.38 101.552C478.206 99.4459 477.616 97.0329 477.616 94.3092C477.616 91.5854 478.206 89.1725 479.38 87.0662C480.597 84.9576 482.238 83.3171 484.304 82.142L484.304 82.142L484.306 82.1409C486.373 80.9254 488.662 80.317 491.178 80.317C492.68 80.317 494.056 80.5402 495.309 80.9847L495.309 80.9848L495.315 80.9865C496.617 81.3936 497.711 81.8805 498.599 82.4456L498.599 82.4456L498.602 82.4472C499.539 83.0178 500.199 83.5405 500.594 84.0138L500.859 84.3321V83.9177V83.1184V83.0614L500.821 83.0188C500.144 82.2577 498.933 81.4684 497.207 80.6464C495.462 79.8154 493.451 79.4021 491.178 79.4021C488.448 79.4021 485.983 80.0436 483.785 81.3288L483.785 81.3288L483.784 81.3294C481.63 82.6137 479.911 84.3748 478.628 86.61C477.342 88.849 476.702 91.4169 476.702 94.3092C476.702 97.1609 477.342 99.7282 478.627 102.007L478.628 102.008C479.911 104.244 481.63 106.005 483.784 107.289L483.785 107.29C485.983 108.575 488.448 109.216 491.178 109.216C493.45 109.216 495.46 108.824 497.204 108.035L497.204 108.035L497.207 108.033C498.934 107.211 500.147 106.4 500.824 105.597L500.859 105.555V105.5V104.701V104.286L500.594 104.605C500.199 105.078 499.539 105.601 498.602 106.171Z" fill="black" stroke="black" stroke-width="0.3"/>
<path d="M449.078 86.6686L449.078 86.6686L449.08 86.6709L450.748 88.5703C450.604 88.6441 450.456 88.7188 450.305 88.7943C449.377 89.2409 448.417 89.7729 447.422 90.3899C446.422 91.0109 445.491 91.7522 444.63 92.6136C443.763 93.4462 443.052 94.4341 442.499 95.5759L442.499 95.5759L442.497 95.5793C441.974 96.7298 441.715 98.0669 441.715 99.5868C441.715 101.626 442.182 103.364 443.123 104.793L443.125 104.795C444.097 106.219 445.382 107.296 446.978 108.024L446.979 108.025C448.606 108.751 450.403 109.114 452.369 109.114C454.681 109.114 456.723 108.596 458.491 107.556C460.283 106.523 461.884 105.179 463.294 103.528C463.392 103.416 463.49 103.303 463.587 103.19L468.295 108.55L468.34 108.601H468.407H469.074H469.404L469.186 108.352L464.116 102.563C465.251 101.192 466.331 99.7325 467.354 98.1836L467.355 98.1825C468.617 96.2382 469.913 94.3792 471.243 92.6057L471.341 92.4751L471.203 92.3885L470.793 92.1323L470.673 92.0577L470.591 92.1721C469.292 93.9841 468.01 95.8472 466.745 97.7615C465.741 99.2541 464.694 100.66 463.604 101.979L452.048 88.7856C452.48 88.5433 452.886 88.3096 453.266 88.0845L453.266 88.084C454.465 87.3647 455.528 86.6617 456.455 85.9751L456.455 85.9751L456.458 85.973C457.386 85.2513 458.162 84.5277 458.784 83.8017C459.442 83.0747 459.93 82.3268 460.245 81.5575C460.594 80.7535 460.769 79.9138 460.769 79.0397C460.769 77.9232 460.507 76.8258 459.987 75.7489C459.496 74.6294 458.709 73.7037 457.63 72.9723C456.573 72.233 455.208 71.8698 453.548 71.8698C451.822 71.8698 450.36 72.1977 449.171 72.8621C448.021 73.4896 447.146 74.346 446.551 75.4311C445.957 76.4799 445.661 77.6497 445.661 78.9372C445.661 80.179 445.816 81.2717 446.13 82.2127L446.129 82.2128L446.132 82.2192C446.478 83.1182 446.91 83.9323 447.431 84.6608L447.431 84.6609L447.436 84.6673C447.983 85.3514 448.53 86.0185 449.078 86.6686ZM451.301 89.1998L463.076 102.608C462.971 102.73 462.866 102.852 462.76 102.973C461.37 104.567 459.828 105.854 458.135 106.836C456.453 107.812 454.532 108.301 452.369 108.301C450.509 108.301 448.839 107.98 447.357 107.341C445.88 106.669 444.707 105.679 443.835 104.371C442.966 103.068 442.528 101.476 442.528 99.5868C442.528 97.7976 442.899 96.3066 443.632 95.106C444.408 93.8918 445.352 92.8814 446.463 92.0734L446.463 92.073C447.618 91.2238 448.806 90.4939 450.028 89.883L450.028 89.883L450.031 89.8815C450.474 89.6476 450.897 89.4204 451.301 89.1998ZM452.753 87.4681C452.38 87.6919 451.966 87.9262 451.51 88.1709L449.666 86.0651C449.665 86.0648 449.665 86.0645 449.665 86.0641C448.918 85.1813 448.188 84.2132 447.474 83.1595C446.811 82.0979 446.473 80.6943 446.473 78.9372C446.473 77.2683 447.056 75.8191 448.225 74.5824L448.225 74.5824L448.227 74.581C449.385 73.3239 451.148 72.6822 453.548 72.6822C455.063 72.6822 456.277 73.0189 457.201 73.6791L457.201 73.6791L457.203 73.6805C458.173 74.349 458.871 75.1816 459.303 76.1787L459.304 76.1804C459.74 77.1543 459.957 78.107 459.957 79.0397C459.957 80.5654 459.328 82.0165 458.049 83.3956L458.049 83.3957C456.798 84.7481 455.035 86.106 452.754 87.4679L452.753 87.4681Z" fill="black" stroke="black" stroke-width="0.3"/>
<path d="M388.591 108.451V91.3576H432.001V108.451H388.591ZM388.591 39.462V22.3684H432.001V39.462H388.591ZM388.591 71.5586V54.8339H429.542V71.5586H388.591ZM374.818 22.3684H394.74V108.451H374.818V22.3684Z" fill="black"/>
<path d="M306.3 65.4101C306.3 70.657 307.489 75.2071 309.866 79.0604C312.244 82.8316 315.359 85.701 319.212 87.6686C323.147 89.6362 327.452 90.62 332.125 90.62C336.224 90.62 339.831 90.0871 342.947 89.0214C346.062 87.9556 348.849 86.5619 351.309 84.8402C353.768 83.1185 355.941 81.2739 357.827 79.3063V101.688C354.383 104.393 350.612 106.525 346.513 108.083C342.414 109.64 337.208 110.419 330.895 110.419C324.008 110.419 317.655 109.353 311.834 107.222C306.013 105.09 301.012 102.016 296.831 97.9986C292.65 93.9814 289.411 89.2263 287.116 83.7334C284.82 78.2405 283.672 72.1327 283.672 65.4101C283.672 58.6874 284.82 52.5796 287.116 47.0867C289.411 41.5938 292.65 36.8388 296.831 32.8216C301.012 28.8044 306.013 25.73 311.834 23.5984C317.655 21.4668 324.008 20.4011 330.895 20.4011C337.208 20.4011 342.414 21.1799 346.513 22.7376C350.612 24.2953 354.383 26.4269 357.827 29.1323V51.5138C355.941 49.5462 353.768 47.7016 351.309 45.9799C348.849 44.1763 346.062 42.7826 342.947 41.7988C339.831 40.733 336.224 40.2001 332.125 40.2001C327.452 40.2001 323.147 41.1839 319.212 43.1515C315.359 45.1191 312.244 47.9885 309.866 51.7598C307.489 55.531 306.3 60.0811 306.3 65.4101Z" fill="black"/>
<path d="M245.496 7.52149H244.996V8.02149V63.4364L176.531 2.62617L175.699 1.88715V3V108.451V108.951H176.199H199.442H199.942V108.451V53.035L268.55 113.847L269.382 114.584V113.473V8.02149V7.52149H268.882H245.496Z" fill="#6510DC" stroke="#6510DC"/>
<path d="M97.7798 91.8499L99.2555 75.986H141.928L143.281 91.8499H97.7798ZM120.284 53.9734L108.233 81.7659L109.216 86.316L98.5176 108.452H75.0293L120.284 16.9578L165.662 108.452H142.051L131.721 87.1768L132.459 81.8889L120.284 53.9734Z" fill="black"/>
<path d="M5.90282 40.9377V22.3684H73.4163L32.7115 90.6198H68.9892V108.451H0L40.09 40.9377H5.90282Z" fill="black"/>
</svg>
