<svg width="151" height="36" viewBox="0 0 151 36" fill="none" xmlns="http://www.w3.org/2000/svg">
<path d="M146.625 25.0948C147.287 25.0948 147.888 25.2507 148.425 25.5645L148.62 25.6876C149.062 25.9866 149.417 26.3748 149.681 26.8507L149.792 27.0596C150.032 27.5552 150.15 28.1103 150.15 28.7217C150.15 29.4109 149.994 30.0346 149.681 30.5899L149.682 30.5909C149.418 31.0676 149.063 31.4565 148.62 31.7559L148.425 31.879C147.888 32.1928 147.287 32.3477 146.625 32.3477C145.963 32.3477 145.361 32.1928 144.825 31.879L144.824 31.878C144.299 31.5651 143.881 31.1357 143.569 30.5928L143.568 30.5919C143.255 30.0362 143.099 29.4114 143.099 28.7217C143.099 28.0229 143.255 27.3976 143.569 26.8507L143.69 26.6524C143.986 26.2021 144.365 25.8393 144.824 25.5655L144.825 25.5645L145.03 25.4542C145.513 25.2143 146.046 25.0948 146.625 25.0948ZM146.625 25.5401C146.051 25.5401 145.533 25.6787 145.064 25.9542L145.062 25.9551C144.594 26.2217 144.222 26.5937 143.945 27.0733C143.68 27.55 143.545 28.0979 143.545 28.7217C143.545 29.3456 143.68 29.8935 143.945 30.3702L144.052 30.546C144.315 30.943 144.652 31.2613 145.062 31.503L145.24 31.5967C145.661 31.801 146.122 31.9034 146.625 31.9034C147.209 31.9034 147.728 31.7692 148.185 31.504L148.357 31.3956C148.745 31.132 149.056 30.7912 149.29 30.3721L149.291 30.3702L149.387 30.1885C149.598 29.7556 149.705 29.2676 149.705 28.7217C149.705 28.0981 149.566 27.55 149.291 27.0733L149.29 27.0714C149.023 26.5928 148.656 26.2214 148.187 25.9551L148.184 25.9532C147.727 25.6787 147.208 25.5401 146.625 25.5401Z" fill="black" stroke="black" stroke-width="0.3"/>
<path d="M141.7 25.532L141.435 25.2136C141.334 25.0932 141.159 24.9525 140.898 24.7937L140.896 24.7927C140.654 24.6393 140.355 24.5043 139.993 24.3914L139.987 24.3904C139.646 24.2693 139.269 24.2078 138.855 24.2078C138.163 24.2078 137.534 24.3745 136.968 24.7078L136.966 24.7097C136.399 25.0323 135.948 25.4822 135.613 26.0623C135.292 26.6393 135.13 27.3023 135.13 28.0554C135.13 28.8085 135.292 29.4716 135.613 30.0486L135.744 30.2605C136.062 30.7408 136.469 31.1262 136.966 31.4187L137.182 31.532C137.691 31.7789 138.248 31.903 138.855 31.9031C139.271 31.9031 139.65 31.8475 139.992 31.7371C140.354 31.6126 140.654 31.472 140.896 31.3181L140.898 31.3171L141.078 31.2009C141.242 31.0888 141.359 30.9875 141.435 30.8972L141.7 30.5789V31.2742L141.665 31.3152C141.459 31.5604 141.098 31.7977 140.606 32.032L140.604 32.0339C140.094 32.2643 139.51 32.3767 138.855 32.3767C138.066 32.3767 137.351 32.1916 136.712 31.8181L136.711 31.8171C136.086 31.4444 135.586 30.9331 135.215 30.2859L135.214 30.2849C134.841 29.623 134.655 28.8783 134.655 28.0554C134.655 27.2214 134.841 26.4762 135.215 25.825L135.359 25.5886C135.712 25.0519 136.164 24.6199 136.711 24.2937L136.712 24.2927L136.955 24.1619C137.531 23.8761 138.165 23.7332 138.855 23.7332C139.511 23.7332 140.096 23.8525 140.606 24.0955L140.949 24.2703C141.267 24.4447 141.507 24.6179 141.662 24.7917L141.7 24.8347V25.532Z" fill="black" stroke="black" stroke-width="0.3"/>
<path d="M128.218 21.6038C128.701 21.6038 129.109 21.71 129.43 21.9339H129.431C129.751 22.1503 129.987 22.4264 130.135 22.761L130.235 23.0012C130.322 23.2428 130.367 23.4887 130.367 23.7385C130.367 23.9992 130.313 24.2498 130.21 24.4895L130.211 24.4905C130.117 24.7207 129.971 24.9412 129.779 25.1536L129.78 25.1546C129.598 25.3665 129.373 25.5759 129.106 25.7835L129.103 25.7854C128.838 25.982 128.534 26.1832 128.193 26.388H128.192C128.118 26.4317 128.04 26.4748 127.96 26.5208L131.057 30.0559C131.334 29.7145 131.602 29.3532 131.859 28.971C132.217 28.4291 132.58 27.9019 132.948 27.3889L133.03 27.2737L133.149 27.3489L133.265 27.4212L133.404 27.5081L133.306 27.638C132.932 28.1373 132.566 28.6615 132.211 29.2093V29.2102C131.937 29.6244 131.648 30.0152 131.345 30.385L132.719 31.9544L132.937 32.2034H132.35L132.305 32.1526L131.055 30.7288C131.055 30.7298 131.054 30.7317 131.053 30.7327L131.052 30.7317C130.646 31.2069 130.186 31.5955 129.669 31.8938L129.668 31.8928C129.15 32.1972 128.554 32.3479 127.885 32.3479C127.315 32.3479 126.791 32.2428 126.316 32.0305H126.315C125.847 31.8166 125.468 31.4992 125.182 31.0803L125.18 31.0784C124.901 30.6534 124.764 30.1402 124.764 29.5471C124.764 29.1054 124.84 28.7112 124.996 28.3694L124.997 28.3665L125.127 28.1243C125.265 27.8906 125.431 27.6819 125.622 27.4983C125.871 27.2499 126.14 27.0354 126.429 26.8557C126.713 26.6797 126.988 26.5277 127.254 26.3997L126.874 25.9671L126.872 25.9651C126.717 25.7807 126.561 25.5908 126.406 25.3968L126.4 25.3909L126.522 25.303L126.4 25.3899C126.248 25.1761 126.121 24.9378 126.02 24.676L126.018 24.6702C125.925 24.3907 125.881 24.069 125.881 23.7093C125.881 23.3282 125.968 22.9791 126.146 22.6653C126.303 22.3808 126.523 22.1492 126.804 21.971L126.928 21.8977C127.284 21.6991 127.717 21.6038 128.218 21.6038ZM127.273 26.8987L127.27 26.9007C127.016 27.028 126.766 27.1742 126.521 27.3391L126.278 27.51C125.975 27.7303 125.717 28.0065 125.505 28.3391C125.311 28.6574 125.21 29.0574 125.21 29.5471C125.21 30.0642 125.33 30.4926 125.561 30.8401L125.653 30.968C125.876 31.2569 126.16 31.4808 126.509 31.6399H126.51C126.913 31.8142 127.371 31.9036 127.885 31.9036C128.479 31.9036 129.003 31.7686 129.461 31.5032L129.634 31.3977C130.034 31.1418 130.403 30.8211 130.741 30.4339L130.767 30.4016L127.556 26.7454C127.465 26.7949 127.371 26.847 127.273 26.8987ZM128.218 22.0491C127.64 22.0491 127.212 22.1838 126.913 22.4358L126.793 22.551L126.791 22.553C126.479 22.8828 126.325 23.2659 126.325 23.7093C126.325 24.1906 126.417 24.5648 126.589 24.8421L126.892 25.2669C126.994 25.4016 127.096 25.5309 127.2 25.6536H127.201L127.665 26.1839C127.763 26.1301 127.854 26.0794 127.937 26.0296L127.938 26.0286L128.389 25.7434C128.813 25.4586 129.153 25.176 129.411 24.8968L129.533 24.7561C129.797 24.4261 129.922 24.0873 129.922 23.7385C129.922 23.492 129.865 23.2372 129.747 22.9739L129.746 22.9729C129.632 22.711 129.449 22.4903 129.19 22.3118L129.187 22.3108C128.949 22.1409 128.63 22.0491 128.218 22.0491Z" fill="black" stroke="black" stroke-width="0.3"/>
<path d="M109.854 32.0533V27.221H122.126V32.0533H109.854ZM109.854 12.5501V7.71776H122.126V12.5501H109.854ZM109.854 21.6238V16.8957H121.431V21.6238H109.854ZM105.961 7.71776H111.593V32.0533H105.961V7.71776Z" fill="black"/>
<path d="M86.5906 19.8856C86.5906 21.3689 86.9267 22.6552 87.5988 23.7445C88.2709 24.8107 89.1516 25.6218 90.2409 26.1781C91.3534 26.7343 92.5702 27.0124 93.8913 27.0124C95.0501 27.0124 96.0699 26.8618 96.9506 26.5605C97.8313 26.2592 98.6193 25.8652 99.3146 25.3785C100.01 24.8918 100.624 24.3703 101.157 23.8141V30.1413C100.184 30.9061 99.1176 31.5087 97.9588 31.9491C96.8 32.3894 95.3282 32.6096 93.5436 32.6096C91.5968 32.6096 89.8006 32.3083 88.155 31.7057C86.5095 31.1031 85.0957 30.234 83.9137 29.0983C82.7317 27.9627 81.8162 26.6184 81.1673 25.0656C80.5183 23.5128 80.1938 21.7861 80.1938 19.8856C80.1938 17.9851 80.5183 16.2585 81.1673 14.7056C81.8162 13.1528 82.7317 11.8085 83.9137 10.6729C85.0957 9.53721 86.5095 8.66808 88.155 8.06549C89.8006 7.46289 91.5968 7.1616 93.5436 7.1616C95.3282 7.1616 96.8 7.38178 97.9588 7.82213C99.1176 8.26249 100.184 8.86508 101.157 9.62992V15.9572C100.624 15.4009 100.01 14.8794 99.3146 14.3927C98.6193 13.8828 97.8313 13.4888 96.9506 13.2107C96.0699 12.9094 95.0501 12.7588 93.8913 12.7588C92.5702 12.7588 91.3534 13.0369 90.2409 13.5931C89.1516 14.1494 88.2709 14.9606 87.5988 16.0267C86.9267 17.0928 86.5906 18.3791 86.5906 19.8856Z" fill="black"/>
<path d="M50.1436 1.8683L68.9014 18.5294V3.16225H76.5127V34.5841L75.6807 33.8468L56.8818 17.1837V32.5529H49.3115V1.12904L50.1436 1.8683Z" fill="#6510DC" stroke="#6510DC"/>
<path d="M27.6422 27.3601L28.0594 22.8754H40.1229L40.5053 27.3601H27.6422ZM34.0042 16.6525L30.5973 24.5094L30.8754 25.7957L27.8508 32.0534H21.2107L34.0042 6.18818L46.8325 32.0534H40.1576L37.2374 26.039L37.446 24.5441L34.0042 16.6525Z" fill="black"/>
<path d="M1.66872 12.9673V7.71776H20.7547L9.24751 27.0124H19.5032V32.0533H0L11.3334 12.9673H1.66872Z" fill="black"/>
</svg>
