<svg width="174" height="42" viewBox="0 0 174 42" fill="none" xmlns="http://www.w3.org/2000/svg">
<path d="M166.953 29.904L166.953 29.904L166.952 29.9046C166.35 30.2632 165.87 30.7553 165.513 31.378C165.153 32.0046 164.975 32.7211 164.975 33.5232C164.975 34.3147 165.153 35.0306 165.512 35.6674L165.512 35.6674L165.513 35.6684C165.87 36.2912 166.35 36.7832 166.952 37.1419L166.953 37.1425C167.567 37.502 168.256 37.6807 169.016 37.6807C169.775 37.6807 170.464 37.502 171.078 37.1425C171.691 36.7838 172.172 36.2913 172.519 35.667C172.878 35.0303 173.056 34.3145 173.056 33.5232C173.056 32.7215 172.878 32.0053 172.519 31.379C172.172 30.7549 171.691 30.2625 171.078 29.904C170.464 29.5444 169.775 29.3658 169.016 29.3658C168.256 29.3658 167.567 29.5444 166.953 29.904ZM172.108 35.4353L172.108 35.4353L172.107 35.4372C171.797 35.9928 171.371 36.4296 170.827 36.7499C170.295 37.0582 169.693 37.2137 169.016 37.2137C168.35 37.2137 167.747 37.0585 167.204 36.7496C166.66 36.4292 166.228 35.9922 165.907 35.4362C165.598 34.8826 165.442 34.2463 165.442 33.5232C165.442 32.8001 165.598 32.1638 165.907 31.6102C166.228 31.0544 166.659 30.6232 167.203 30.3141L167.203 30.3141L167.205 30.313C167.748 29.9933 168.351 29.8328 169.016 29.8328C169.692 29.8328 170.294 29.9935 170.825 30.3123L170.825 30.3124L170.828 30.3141C171.372 30.6232 171.797 31.054 172.107 31.6093L172.107 31.6093L172.108 31.6112C172.428 32.1647 172.589 32.8006 172.589 33.5232C172.589 34.2459 172.428 34.8818 172.108 35.4353Z" fill="white" stroke="white" stroke-width="0.3"/>
<path d="M162.428 36.5342L162.428 36.5342L162.425 36.5358C162.144 36.7148 161.795 36.8769 161.376 37.021C160.979 37.1489 160.541 37.2137 160.061 37.2137C159.258 37.2137 158.529 37.0262 157.872 36.6527C157.214 36.2656 156.692 35.7373 156.304 35.0655C155.931 34.3962 155.743 33.6274 155.743 32.7551C155.743 31.8829 155.931 31.1141 156.304 30.4447C156.692 29.7731 157.214 29.2518 157.871 28.8781L157.871 28.8781L157.873 28.877C158.53 28.4905 159.258 28.2966 160.061 28.2966C160.54 28.2966 160.977 28.3678 161.374 28.5084L161.374 28.5085L161.379 28.5102C161.797 28.6409 162.145 28.7962 162.425 28.9744L162.425 28.9745L162.428 28.976C162.73 29.1597 162.934 29.3232 163.052 29.4649L163.317 29.7832V29.3689V29.1084V29.0513L163.279 29.0087C163.045 28.745 162.635 28.4808 162.069 28.2115C161.485 27.9332 160.814 27.7962 160.061 27.7962C159.155 27.7962 158.334 28.0094 157.601 28.4379L157.601 28.4379L157.6 28.4385C156.883 28.8662 156.31 29.4529 155.884 30.1959C155.455 30.9426 155.243 31.7972 155.243 32.7551C155.243 33.7002 155.455 34.5542 155.883 35.3134L155.883 35.3134L155.884 35.3144C156.31 36.0574 156.883 36.6441 157.6 37.0717L157.601 37.0724C158.334 37.5009 159.155 37.714 160.061 37.714C160.813 37.714 161.483 37.5841 162.067 37.32L162.067 37.32L162.069 37.3188C162.636 37.049 163.047 36.7774 163.282 36.4985L163.317 36.4566V36.4019V36.1414V35.7271L163.052 36.0454C162.934 36.187 162.73 36.3505 162.428 36.5342Z" fill="white" stroke="white" stroke-width="0.3"/>
<path d="M146.265 30.3303L146.265 30.3303C146.086 30.1178 145.907 29.8998 145.728 29.6762L145.723 29.6698L145.724 29.6697C145.549 29.4248 145.404 29.1519 145.288 28.8515L145.286 28.8452L145.286 28.8451C145.179 28.5258 145.128 28.1585 145.128 27.7458C145.128 27.3103 145.228 26.9119 145.431 26.554C145.635 26.1828 145.934 25.8905 146.324 25.6775C146.73 25.4507 147.224 25.3416 147.799 25.3416C148.354 25.3416 148.821 25.463 149.187 25.7187C149.552 25.9665 149.821 26.2819 149.989 26.6644C150.165 27.0275 150.253 27.3995 150.253 27.7791C150.253 28.0775 150.194 28.3646 150.075 28.6389C149.967 28.9016 149.801 29.1544 149.582 29.3978C149.374 29.6402 149.116 29.8803 148.81 30.1183L148.807 30.1205L148.807 30.1205C148.502 30.3465 148.152 30.5774 147.76 30.8132L147.759 30.8136C147.667 30.8682 147.57 30.9243 147.469 30.9819L151.074 35.098C151.4 34.6977 151.714 34.273 152.016 33.8239C152.429 33.1992 152.847 32.5911 153.271 31.9997L153.353 31.8853L153.472 31.9599L153.606 32.0434L153.744 32.13L153.647 32.2606C153.214 32.8366 152.793 33.4405 152.383 34.0723L152.383 34.0733C152.064 34.556 151.728 35.0125 151.376 35.4428L152.971 37.2647L153.189 37.5136H152.859H152.642H152.574L152.529 37.4625L151.071 35.803C151.065 35.8104 151.058 35.8178 151.052 35.8253C150.585 36.3715 150.055 36.8165 149.461 37.1592C148.867 37.5082 148.184 37.6805 147.415 37.6805C146.762 37.6805 146.162 37.5601 145.617 37.3168L145.616 37.3163C145.08 37.0714 144.647 36.7086 144.319 36.2292L144.318 36.2272L144.318 36.2271C143.998 35.7417 143.842 35.155 143.842 34.4749C143.842 33.9682 143.929 33.5176 144.106 33.1271L144.108 33.1237L144.108 33.1237C144.293 32.7418 144.531 32.4102 144.822 32.1303C145.108 31.8446 145.417 31.5984 145.75 31.392C146.076 31.1894 146.392 31.0143 146.698 30.8671M146.265 30.3303L150.971 35.6892C150.96 35.7019 150.949 35.7146 150.938 35.7272C150.482 36.2615 149.964 36.6957 149.386 37.0296C148.818 37.3636 148.161 37.5305 147.415 37.5305C146.781 37.5305 146.202 37.4137 145.679 37.1799C145.167 36.9461 144.755 36.601 144.443 36.1446C144.142 35.6882 143.992 35.1317 143.992 34.4749C143.992 33.9851 144.076 33.5565 144.243 33.1892C144.421 32.8218 144.649 32.5046 144.927 32.2374C145.206 31.9591 145.506 31.7198 145.829 31.5194C146.152 31.319 146.463 31.1465 146.764 31.0018C146.785 30.9912 146.806 30.9806 146.827 30.9701L146.725 30.8537M146.265 30.3303L146.267 30.3327L146.725 30.8537M146.265 30.3303L146.863 30.7835M146.698 30.8671C146.698 30.867 146.699 30.8668 146.699 30.8666L146.764 31.0018L146.697 30.8676C146.697 30.8675 146.698 30.8673 146.698 30.8671ZM146.698 30.8671C146.707 30.8626 146.716 30.8581 146.725 30.8537M146.725 30.8537C146.772 30.83 146.818 30.8066 146.863 30.7835M146.863 30.7835L146.38 30.2337L146.863 30.7835ZM147.259 30.743L147.158 30.6274C147.114 30.6514 147.069 30.6756 147.022 30.7003L147.259 30.743ZM147.259 30.743C147.215 30.7671 147.17 30.7915 147.124 30.8162L147.259 30.743ZM146.611 30.0023C146.37 29.7182 146.135 29.4064 145.905 29.0666L146.611 30.0023ZM147.044 31.2175L150.77 35.46C150.755 35.4773 150.74 35.4945 150.725 35.5117C150.279 36.0235 149.785 36.4356 149.243 36.7496C148.712 37.0578 148.104 37.2136 147.415 37.2136C146.821 37.2136 146.291 37.1111 145.823 36.9092C145.358 36.6978 144.991 36.3877 144.718 35.9779C144.448 35.5729 144.309 35.0745 144.309 34.4749C144.309 33.9061 144.427 33.4399 144.654 33.0683C144.9 32.6831 145.199 32.3636 145.55 32.1083L145.55 32.1078C145.922 31.8343 146.305 31.5995 146.697 31.4031L146.698 31.4031L146.7 31.4016C146.819 31.3388 146.934 31.2775 147.044 31.2175Z" fill="white" stroke="white" stroke-width="0.3"/>
<path d="M126.631 37.3635V31.7932H140.777V37.3635H126.631ZM126.631 14.8819V9.31158H140.777V14.8819H126.631ZM126.631 25.3413V19.8912H139.976V25.3413H126.631ZM122.143 9.31158H128.635V37.3635H122.143V9.31158Z" fill="white"/>
<path d="M99.8151 23.3376C99.8151 25.0475 100.202 26.5302 100.977 27.7859C101.752 29.0148 102.767 29.9499 104.023 30.5911C105.305 31.2323 106.708 31.5528 108.231 31.5528C109.566 31.5528 110.742 31.3792 111.757 31.0319C112.772 30.6846 113.681 30.2304 114.482 29.6694C115.284 29.1083 115.992 28.5072 116.606 27.866V35.1595C115.484 36.0412 114.255 36.7358 112.919 37.2434C111.584 37.751 109.887 38.0048 107.83 38.0048C105.586 38.0048 103.515 37.6575 101.618 36.9629C99.7216 36.2682 98.0919 35.2664 96.7293 33.9573C95.3668 32.6482 94.3115 31.0987 93.5635 29.3087C92.8154 27.5187 92.4414 25.5284 92.4414 23.3376C92.4414 21.1469 92.8154 19.1566 93.5635 17.3666C94.3115 15.5766 95.3668 14.0271 96.7293 12.718C98.0919 11.4089 99.7216 10.407 101.618 9.7124C103.515 9.01778 105.586 8.67047 107.83 8.67047C109.887 8.67047 111.584 8.92427 112.919 9.43188C114.255 9.93949 115.484 10.6341 116.606 11.5157V18.8092C115.992 18.1681 115.284 17.5669 114.482 17.0059C113.681 16.4181 112.772 15.964 111.757 15.6434C110.742 15.2961 109.566 15.1224 108.231 15.1224C106.708 15.1224 105.305 15.443 104.023 16.0842C102.767 16.7254 101.752 17.6605 100.977 18.8894C100.202 20.1183 99.8151 21.6011 99.8151 23.3376Z" fill="white"/>
<path d="M79.9998 4.13636H79.4998V4.63636V21.9443L57.75 2.62617L56.918 1.88715V3V37.3636V37.8636H57.418H64.992H65.492V37.3636V20.0542L87.2889 39.3742L88.1206 40.1113V39V4.63636V4.13636H87.6206H79.9998Z" fill="#6510DC" stroke="white"/>
<path d="M31.8629 31.9537L32.3438 26.7841H46.2496L46.6904 31.9537H31.8629ZM39.1965 19.6108L35.2693 28.6676L35.5899 30.1503L32.1034 37.3637H24.4492L39.1965 7.54846L53.9839 37.3637H46.2897L42.9234 30.4308L43.1639 28.7076L39.1965 19.6108Z" fill="white"/>
<path d="M1.92356 15.3628V9.31158H23.9243L10.6597 31.5528H22.4816V37.3635H0L13.0642 15.3628H1.92356Z" fill="white"/>
</svg>
